<?xml version="1.0" encoding="utf-8"?>
<!-- Generator: Adobe Illustrator 16.0.0, SVG Export Plug-In . SVG Version: 6.00 Build 0)  -->
<!DOCTYPE svg PUBLIC "-//W3C//DTD SVG 1.1//EN" "http://www.w3.org/Graphics/SVG/1.1/DTD/svg11.dtd">
<svg version="1.1" id="vector" xmlns="http://www.w3.org/2000/svg" xmlns:xlink="http://www.w3.org/1999/xlink" x="0px" y="0px"
	 width="100px" height="100px" viewBox="0 0 100 100" enable-background="new 0 0 100 100" xml:space="preserve">
<path id="path_1_" fill="#CCCCCC" d="M0,50.195c0-13.204,5.251-25.88,14.587-35.217C23.924,5.642,36.601,0.391,49.805,0.391
	s25.881,5.251,35.217,14.587c9.337,9.337,14.588,22.013,14.588,35.217s-5.251,25.881-14.588,35.217
	C75.686,94.749,63.009,100,49.805,100s-25.88-5.251-35.217-14.588C5.251,76.076,0,63.399,0,50.195"/>
<path id="path_1_1_" fill="#FFFFFF" d="M1.141,50.195c0-12.901,5.13-25.288,14.253-34.411C24.517,6.662,36.903,1.531,49.805,1.531
	s25.288,5.13,34.41,14.253c9.123,9.123,14.254,21.509,14.254,34.411s-5.131,25.288-14.254,34.41
	c-9.122,9.123-21.509,14.254-34.41,14.254s-25.288-5.131-34.411-14.254C6.271,75.483,1.141,63.097,1.141,50.195"/>
<path id="path_3_" fill="#F0C419" d="M53.967,39.487h4.363c0.564,0,1.024,0.46,1.024,1.026v4.363c0,0.566,0.458,1.025,1.024,1.025
	h5.021c0.566,0,1.025-0.459,1.025-1.026v-4.362c0-0.567,0.459-1.026,1.024-1.026h4.364c0.565,0,1.024-0.458,1.024-1.024v-5.021
	c0-0.566-0.459-1.024-1.024-1.024h-4.364c-0.565,0-1.024-0.459-1.024-1.025v-4.363c0-0.566-0.459-1.025-1.025-1.025h-5.021
	c-0.566,0-1.024,0.458-1.024,1.025v4.363c0,0.566-0.46,1.025-1.024,1.025h-4.363c-0.567,0-1.026,0.458-1.026,1.024v5.022
	C52.94,39.029,53.399,39.487,53.967,39.487z"/>
<path id="path_1_3_" fill="#0AC6C7" d="M81.865,20.324c0-4.602-3.743-8.345-8.345-8.345H30.112c-4.601,0-8.345,3.744-8.345,8.345
	V82.69c0,4.602,3.744,8.345,8.345,8.345h30.569c0.51,0,1.021-0.199,1.401-0.58l19.204-19.204c0.352-0.352,0.579-0.856,0.579-1.399
	V20.324L81.865,20.324z M62.662,84.271v-8.057c0-2.417,1.966-4.384,4.383-4.384h8.058C73.781,73.152,63.946,82.988,62.662,84.271z
	 M77.904,67.87H67.045c-4.601,0-8.345,3.743-8.345,8.345v10.858H30.112c-2.417,0-4.382-1.966-4.382-4.383V20.324
	c0-2.417,1.965-4.383,4.382-4.383h43.409c2.417,0,4.383,1.966,4.383,4.383L77.904,67.87L77.904,67.87z"/>
<path id="path_2_1_" fill="#F0C419" d="M70.107,55.865H33.526c-1.094,0-1.981,0.888-1.981,1.979c0,1.096,0.888,1.981,1.981,1.981
	h36.581c1.094,0,1.981-0.886,1.981-1.981C72.089,56.753,71.201,55.865,70.107,55.865z"/>
<path id="path_3" fill="#F0C419" d="M53.666,65.637h-20.14c-1.094,0-1.981,0.888-1.981,1.981s0.888,1.98,1.981,1.98h20.14
	c1.094,0,1.98-0.887,1.98-1.98S54.76,65.637,53.666,65.637z"/>
<path id="path_4" fill="#F0C419" d="M53.666,75.409h-20.14c-1.094,0-1.981,0.887-1.981,1.981c0,1.094,0.888,1.98,1.981,1.98h20.14
	c1.094,0,1.98-0.887,1.98-1.98C55.646,76.296,54.76,75.409,53.666,75.409z"/>
<g>
	<path fill="#E4E5E6" stroke="#191919" stroke-width="0.5" stroke-miterlimit="10" d="M28.613,38.736l5.995-5.856
		c0,0,0.809-0.362,1.143-0.362s8.699,0,8.699,0s0.753,0.25,0.92,0.418c0.167,0.167,6.051,6.19,6.051,6.19s0.782,1.421-0.195,2.342
		c0,0-0.224,0.725-1.479,0.558l-3.818-3.262l0.083,2.398H34.273v-2.315c0,0-1.924,2.622-3.514,3.039c0,0-0.864,0.53-2.146-0.584
		C28.613,41.301,28.055,39.768,28.613,38.736z"/>
	<path fill="#E4E5E6" stroke="#191919" stroke-width="0.5" stroke-miterlimit="10" d="M34.607,42.583l4.237,3.514l-1.7,2.063
		c0,0-0.084,0.669,0.167,0.948c0,0,1.45,1.365,1.254,2.147c0,0,0.195,1.422-1.004,1.729c0,0-0.976,0.223-1.867-0.279l-3.764-3.903
		c0,0-0.167-1.031,0-1.953L34.607,42.583z"/>
	<path fill="#E4E5E6" stroke="#191919" stroke-width="0.5" stroke-miterlimit="10" d="M45.797,42.696l-4.238,3.513l1.701,2.063
		c0,0,0.083,0.67-0.167,0.948c0,0-1.449,1.366-1.254,2.147c0,0-0.195,1.424,1.004,1.729c0,0,0.975,0.223,1.868-0.279l3.764-3.904
		c0,0,0.167-1.031,0-1.951L45.797,42.696z"/>
	<path fill="#E4E5E6" stroke="#191919" stroke-width="0.5" stroke-miterlimit="10" d="M46.166,21.996
		C45.584,21,44.797,20.211,43.8,19.631c-0.997-0.581-2.083-0.871-3.262-0.871c-1.178,0-2.266,0.29-3.262,0.871
		c-0.997,0.581-1.785,1.369-2.365,2.365c-0.581,0.997-0.872,2.083-0.872,3.262s0.291,2.266,0.872,3.262
		c0.581,0.996,1.37,1.783,2.365,2.366c0.996,0.58,2.083,0.871,3.262,0.871c1.179,0,2.266-0.291,3.262-0.871
		c0.997-0.582,1.784-1.37,2.365-2.366c0.58-0.996,0.871-2.083,0.871-3.262S46.746,22.992,46.166,21.996z"/>
</g>
</svg>
