<?xml version="1.0" encoding="utf-8"?>
<!-- Generator: Adobe Illustrator 16.0.0, SVG Export Plug-In . SVG Version: 6.00 Build 0)  -->
<!DOCTYPE svg PUBLIC "-//W3C//DTD SVG 1.1//EN" "http://www.w3.org/Graphics/SVG/1.1/DTD/svg11.dtd">
<svg version="1.1" id="vector" xmlns="http://www.w3.org/2000/svg" xmlns:xlink="http://www.w3.org/1999/xlink" x="0px" y="0px"
	 width="100px" height="100px" viewBox="0 0 100 100" enable-background="new 0 0 100 100" xml:space="preserve">
<path id="path_1_" fill="#CCCCCC" d="M0,50.195c0-13.204,5.251-25.88,14.587-35.217C23.924,5.642,36.601,0.391,49.805,0.391
	s25.881,5.251,35.217,14.587c9.337,9.337,14.588,22.013,14.588,35.217s-5.251,25.881-14.588,35.217
	C75.686,94.749,63.009,100,49.805,100s-25.88-5.251-35.217-14.588C5.251,76.076,0,63.399,0,50.195"/>
<path id="path_1_1_" fill="#FFFFFF" d="M1.141,50.195c0-12.901,5.13-25.288,14.253-34.411C24.517,6.662,36.903,1.531,49.805,1.531
	s25.288,5.13,34.41,14.253c9.123,9.123,14.254,21.509,14.254,34.411s-5.131,25.288-14.254,34.41
	c-9.122,9.123-21.509,14.254-34.41,14.254s-25.288-5.131-34.411-14.254C6.271,75.483,1.141,63.097,1.141,50.195"/>
<path id="path_2" fill="#09C7C7" stroke="#000000" d="M35.577,36.341l30.068,0.202c0,0,5.283,3.046,9.955,10.158
	c0,0,11.671,15.47,6.703,25.392c-2.989,5.975-10.665,18.892-24.175,11.375c-2.899-1.611-4.978-4.874,4.471-12.493l-1.679-0.456
	c0,0-4.418,3.046-16.3,3.046c0,0-0.456,2.665,8.225,6.247c1.575,0.648,3.201,3.201,1.218,6.702c0,0-4.573,7.771-19.807,4.569
	c0,0-18.383-6.604-17.777-17.777c0,0,0-22.548,19.098-36.974V36.341z"/>
<path id="path_3" fill="#DBE4E7" stroke="#070707" d="M35.863,19.175c-0.01-3.095,0.963-6.114,2.777-8.622s4.378-4.375,7.322-5.333
	c2.942-0.958,6.114-0.958,9.057,0s5.507,2.826,7.321,5.333s2.787,5.527,2.777,8.622c0.01,3.095-0.963,6.114-2.777,8.622
	c-1.814,2.508-4.379,4.375-7.321,5.333s-6.114,0.958-9.057,0c-2.943-0.958-5.507-2.826-7.322-5.333
	C36.826,25.29,35.853,22.27,35.863,19.175"/>
<path id="path_4" fill="#DBE4E7" stroke="#070707" d="M51.116,60.314c-0.007-2.235,0.695-4.417,2.007-6.229
	c1.31-1.81,3.161-3.159,5.286-3.852c2.127-0.692,4.418-0.692,6.543,0c2.124,0.692,3.977,2.042,5.288,3.852
	c1.309,1.812,2.012,3.993,2.005,6.229c0.007,2.234-0.696,4.416-2.005,6.226c-1.312,1.812-3.164,3.161-5.288,3.852
	c-2.125,0.693-4.416,0.693-6.543,0c-2.125-0.69-3.977-2.04-5.286-3.852C51.812,64.73,51.109,62.549,51.116,60.314"/>
<path id="path_5" fill="#DBE4E7" stroke="#070707" d="M61.527,72.465c-4.648-1.218-7.464,0.037-14.472-10.322
	c0,0-1.829-6.703-7.619-5.335c0,0-4.268,1.522-2.134,7.92c0,0,2.134,4.269,2.896,5.18c0,0-11.427,2.285-12.188,4.725
	c0,0,22.397,12.188,35.347-1.373c0,0-1.223-0.639-1.829-0.799V72.465z"/>
</svg>
