<?xml version="1.0" encoding="utf-8"?>
<!-- Generator: Adobe Illustrator 16.0.0, SVG Export Plug-In . SVG Version: 6.00 Build 0)  -->
<!DOCTYPE svg PUBLIC "-//W3C//DTD SVG 1.1//EN" "http://www.w3.org/Graphics/SVG/1.1/DTD/svg11.dtd">
<svg version="1.1" id="vector" xmlns="http://www.w3.org/2000/svg" xmlns:xlink="http://www.w3.org/1999/xlink" x="0px" y="0px"
	 width="100px" height="100px" viewBox="0 0 100 100" enable-background="new 0 0 100 100" xml:space="preserve">
<path id="path_1_" fill="#CCCCCC" d="M0,50.195c0-13.204,5.251-25.88,14.587-35.217C23.924,5.642,36.601,0.391,49.805,0.391
	s25.881,5.251,35.217,14.587c9.337,9.337,14.588,22.013,14.588,35.217s-5.251,25.881-14.588,35.217
	C75.686,94.749,63.009,100,49.805,100s-25.88-5.251-35.217-14.588C5.251,76.076,0,63.399,0,50.195"/>
<path id="path_1_1_" fill="#FFFFFF" d="M1.141,50.195c0-12.901,5.13-25.288,14.253-34.411C24.517,6.662,36.903,1.531,49.805,1.531
	s25.288,5.13,34.41,14.253c9.123,9.123,14.254,21.509,14.254,34.411s-5.131,25.288-14.254,34.41
	c-9.122,9.123-21.509,14.254-34.41,14.254s-25.288-5.131-34.411-14.254C6.271,75.483,1.141,63.097,1.141,50.195"/>
<path fill="#0AC6C7" d="M45.906,27.794c-0.739,3.536-3.77,5.601-5.878,8.369c-1.53,1.939-3.958,5.345-6.367,6.25
	c-2.502,0.775-5.219-2.462-7.097-3.646c-2.625-1.517-5.765-1.858-8.101-3.787c-1.734-1.392-4.574-5.39-3.968-7.973
	c1.189-5.086,5.297-7.804,10.227-6.196c3.421,1.112,4.33,3.518,6.765,2.149l0.003-0.003c3.064-2.78,7.097-4.126,11.196-2.004
	C45.343,22.25,46.437,24.911,45.906,27.794z"/>
<circle fill="#F0C419" cx="22.416" cy="27.911" r="4.477"/>
<circle fill="#F0C419" cx="38.424" cy="27.263" r="4.826"/>
<path opacity="0.51" fill="#E9A93D" d="M39.117,22.488c-2.64-0.383-5.088,1.448-5.468,4.084c-0.381,2.637,1.448,5.084,4.085,5.466
	c2.637,0.379,5.083-1.447,5.466-4.084C43.581,25.314,41.753,22.867,39.117,22.488z M42.459,27.628
	c-0.33,2.287-2.469,3.872-4.777,3.538c-2.31-0.334-3.911-2.461-3.582-4.748c0.33-2.287,2.469-3.867,4.779-3.534
	C41.187,23.217,42.792,25.341,42.459,27.628z"/>
<path opacity="0.51" fill="#E9A93D" d="M23.058,23.479c-2.449-0.354-4.721,1.344-5.073,3.79c-0.354,2.448,1.343,4.717,3.79,5.074
	c2.448,0.351,4.719-1.344,5.074-3.79C27.2,26.103,25.505,23.831,23.058,23.479z M26.159,28.249
	c-0.306,2.123-2.292,3.591-4.433,3.282c-2.144-0.309-3.629-2.283-3.324-4.405s2.292-3.589,4.436-3.279
	C24.979,24.156,26.468,26.127,26.159,28.249z"/>
<g>
	<path fill="#E4E5E6" d="M45.904,27.792c-0.739,3.538-3.77,5.602-5.878,8.371c-1.531,1.94-3.957,5.343-6.367,6.252
		c-2.501,0.773-5.22-2.464-7.097-3.648c-2.624-1.515-5.766-1.856-8.102-3.786c-0.216-0.174-0.45-0.388-0.69-0.633
		c3.412,2.478,4.671,1.736,7.651,3.22c3.267,1.628,4.434,3.741,7.808,3.809c2.528,0.048,4.991-3.719,5.613-4.757
		c0.531-0.959,1.728-3.126,2.587-3.736c2.113-1.551,3.242-2.881,3.816-5.444c0.435-1.898,0.225-4.125-1.139-5.536
		C45.716,23.339,46.325,25.494,45.904,27.792z"/>
</g>
<path fill="#D9D1C9" d="M42.202,31.566c-2.115,2.027-5.405,1.438-7.33-1.027c0.003,0,0.003,0,0.003,0
	c0.05,0.053,0.099,0.104,0.148,0.156c0.152,0.153,0.314,0.295,0.486,0.425c0.059,0.042,0.117,0.084,0.177,0.125
	c0.119,0.084,0.241,0.162,0.368,0.233c0.064,0.036,0.128,0.071,0.194,0.104c0.193,0.099,0.397,0.186,0.609,0.258
	c0.28,0.096,0.576,0.167,0.883,0.213c1.492,0.213,2.92-0.276,3.953-1.221c0.104-0.095,0.208-0.198,0.301-0.303
	c0.05-0.053,0.098-0.108,0.144-0.161c0.094-0.112,0.182-0.225,0.262-0.345c0.042-0.06,0.081-0.119,0.12-0.183
	c0.116-0.183,0.219-0.376,0.308-0.577c0.033-0.067,0.062-0.137,0.087-0.204c0.138-0.345,0.237-0.71,0.292-1.091
	c0.215-1.496-0.275-2.928-1.222-3.953c-0.045-0.056-0.096-0.107-0.146-0.157C44.205,25.982,44.579,29.285,42.202,31.566z"/>
<path fill="#D9D1C9" d="M25.91,31.904c-1.967,1.886-5.027,1.338-6.817-0.956c0.003,0,0.003,0,0.003,0
	c0.046,0.048,0.092,0.096,0.138,0.145c0.14,0.143,0.291,0.276,0.451,0.396c0.056,0.04,0.109,0.079,0.165,0.118
	c0.111,0.078,0.225,0.149,0.343,0.216c0.059,0.033,0.118,0.067,0.18,0.095c0.18,0.094,0.37,0.174,0.566,0.242
	c0.262,0.089,0.537,0.155,0.822,0.197c1.387,0.2,2.716-0.256,3.677-1.133c0.096-0.089,0.192-0.184,0.28-0.283
	c0.046-0.049,0.091-0.101,0.132-0.15c0.088-0.105,0.17-0.21,0.244-0.321c0.04-0.055,0.076-0.111,0.113-0.17
	c0.106-0.17,0.203-0.35,0.287-0.537c0.03-0.062,0.056-0.127,0.081-0.189c0.127-0.321,0.221-0.661,0.271-1.015
	c0.2-1.391-0.256-2.723-1.138-3.677c-0.042-0.052-0.088-0.1-0.134-0.146C27.773,26.71,28.123,29.781,25.91,31.904z"/>
<path opacity="0.63" fill="#D9D1C9" d="M31.782,35.084c-0.007,0.274-0.236,0.487-0.506,0.48c-0.206-0.005-0.382-0.135-0.453-0.318
	c0.057,0.027,0.125,0.043,0.192,0.045c0.271,0.007,0.499-0.21,0.505-0.48c0.002-0.067-0.009-0.136-0.035-0.194
	C31.664,34.696,31.787,34.879,31.782,35.084z"/>
<path opacity="0.63" fill="#D9D1C9" d="M31.923,29.623c-0.014,0.547-0.468,0.978-1.016,0.964c-0.419-0.011-0.77-0.283-0.902-0.66
	c0.127,0.068,0.271,0.106,0.423,0.109c0.547,0.015,1.001-0.416,1.016-0.963c0.002-0.125-0.018-0.248-0.059-0.357
	C31.712,28.883,31.933,29.23,31.923,29.623z"/>
<path opacity="0.63" fill="#D9D1C9" d="M36.185,35.691c-0.006,0.257-0.219,0.458-0.475,0.451c-0.2-0.005-0.365-0.134-0.425-0.314
	c0.048,0.021,0.101,0.032,0.158,0.034c0.258,0.006,0.468-0.198,0.475-0.452c0.001-0.058-0.006-0.111-0.026-0.159
	C36.069,35.32,36.189,35.493,36.185,35.691z"/>
<path opacity="0.63" fill="#D9D1C9" d="M22.63,34.35c-0.005,0.214-0.179,0.378-0.392,0.374c-0.148-0.004-0.275-0.093-0.332-0.222
	c0.049,0.024,0.104,0.04,0.161,0.042c0.213,0.006,0.386-0.163,0.392-0.372c0.001-0.058-0.012-0.111-0.033-0.162
	C22.553,34.072,22.634,34.202,22.63,34.35z"/>
<path fill="#0AC6C7" d="M81.533,60.219c-1.521-4.174-6.1-3.797-8.313-2.548c0.094-1.081,0.137-2.181,0.137-3.304H33.837
	c-0.671,18.858,9.381,21.48,9.445,26.678h20.396c0.317-4.569,5.515-5.723,7.717-13.334C79.919,71.098,82.852,63.844,81.533,60.219z
	 M72.433,64.242c0.4-2.043,0.138-0.502,0.4-3.197c1.906-1.896,6.393-2.767,6.909,1.217C80.276,66.465,72.613,68.679,72.433,64.242z"
	/>
<g opacity="0.45">
	<path fill="#CCCCCC" d="M81.533,60.219c-1.521-4.174-6.104-3.797-8.313-2.548c0.094-1.081,0.137-2.181,0.137-3.304h-7.349
		c-0.065,5.734-0.557,11.112-4.005,16.07c-1.929,2.737-7.566,6.656-6.404,10.607h8.08c0.317-4.569,5.518-5.723,7.717-13.334
		C79.919,71.098,82.852,63.844,81.533,60.219z M72.433,64.242c0.4-2.043,0.138-0.502,0.4-3.197c1.906-1.896,6.393-2.767,6.909,1.217
		C80.276,66.465,72.613,68.679,72.433,64.242z"/>
</g>
<g>
	<path fill="#F0C419" d="M50.414,40.718c-1.129,3.124-0.195,4.979,1.626,7.294c-5.696-2.615-5.425-9.515-1.859-13.225
		c3.035-3.054,6.482-7.683,3.017-11.036c4.193,2.14,3.96,7.281,2.12,10.392C53.915,36.43,51.348,38.351,50.414,40.718z"/>
</g>
<g>
	<path fill="#F0C419" d="M61.506,40.177c-2.492,2.475-4.695,4.27-5.08,6.607c-2.368-3.067-0.679-6.126,2.504-9.354
		c1.783-1.679,3.334-3.884,2.915-6.061C63.786,34.004,63.821,37.803,61.506,40.177z"/>
</g>
<path fill="#E4E5E6" d="M71.092,54.367H36.091c0.116-0.774,0.221-1.614,0.755-1.928c0.649-0.463,2.096-0.064,2.819,0
	c1.248,0.199,2.097,0.262,3.208-0.137c0.985-0.388,1.898-0.713,2.945-0.912c1.113-0.2,2.097-0.461,3.209-0.725
	c1.571-0.384,2.367,0.264,3.742,0.924c1.11,0.462,2.096,0.387,3.206,0.188c0.985-0.125,2.036-0.063,3.008-0.251
	c1.647-0.461,2.621-1.184,4.467-0.598c1.438,0.461,1.896,1.186,3.333,0.724c1.709-0.463,1.907,0.125,3.146,1.175
	c0.459,0.398,0.985,0.199,1.184,0.982C71.146,54.001,71.133,54.18,71.092,54.367z"/>
<path fill="#0AC6C7" d="M82.239,77.726c0,2.386-5.912,4.463-14.66,5.547H39.642c-8.748-1.084-14.658-3.161-14.658-5.547H82.239z"/>
<polygon fill="#E3E3E3" points="64.796,84.367 42.423,84.367 39.642,83.272 67.579,83.272 "/>
<g opacity="0.45">
	<path fill="#CCCCCC" d="M82.239,77.726c0,2.379-5.912,4.467-14.658,5.547h-8.425c4.947-0.882,9.905-1.342,12.946-5.547H82.239z"/>
</g>
<path fill="#E4E5E6" d="M47.434,54.367c-1.08,2.547-1.237,6.605-3.512,7.161c-4.298,1.09-5.797-3.754-5.997-7.161H47.434z"/>
<polygon fill="#F0C419" points="41.727,42.983 43.071,45.444 45.529,46.784 43.071,48.132 41.727,50.587 40.383,48.132 
	37.925,46.784 40.383,45.444 "/>
<polygon fill="#F0C419" points="35.378,46.683 36.278,48.328 37.925,49.23 36.278,50.129 35.378,51.775 34.479,50.129 32.831,49.23 
	34.479,48.328 "/>
</svg>
