<?xml version="1.0" encoding="utf-8"?>
<!-- Generator: Adobe Illustrator 16.0.0, SVG Export Plug-In . SVG Version: 6.00 Build 0)  -->
<!DOCTYPE svg PUBLIC "-//W3C//DTD SVG 1.1//EN" "http://www.w3.org/Graphics/SVG/1.1/DTD/svg11.dtd">
<svg version="1.1" id="vector" xmlns="http://www.w3.org/2000/svg" xmlns:xlink="http://www.w3.org/1999/xlink" x="0px" y="0px"
	 width="100px" height="100px" viewBox="0 0 100 100" enable-background="new 0 0 100 100" xml:space="preserve">
<path id="path_1_" fill="#CCCCCC" d="M1.141,49.999c0-13.255,5.191-25.981,14.42-35.355C24.791,5.271,37.323,0,50.375,0
	C63.428,0,75.96,5.271,85.188,14.644c9.231,9.374,14.421,22.1,14.421,35.355c0,13.256-5.189,25.982-14.421,35.355
	C75.96,94.729,63.428,100,50.375,100c-13.052,0-25.583-5.271-34.813-14.646C6.332,75.981,1.141,63.255,1.141,49.999"/>
<path id="path_1_1_" fill="#FFFFFF" d="M2.269,49.999c0-12.951,5.071-25.387,14.09-34.545C25.377,6.295,37.621,1.145,50.375,1.145
	c12.755,0,24.999,5.15,34.017,14.309c9.019,9.159,14.09,21.593,14.09,34.545c0,12.954-5.071,25.387-14.09,34.546
	c-9.018,9.159-21.263,14.31-34.017,14.31c-12.753,0-24.998-5.15-34.016-14.31S2.269,62.953,2.269,49.999"/>
<g transform="translate(3 1)">
	<path fill="#FFFFFF" d="M84.182,60.035l-0.134,0.134c-1.337-0.534-2.675-0.134-3.744,1.07l-2.675,2.675L64.122,77.42l-1.338,1.337
		v8.024H22.666c-2.941,0-5.349-2.406-5.349-5.349V14.567c0-2.941,2.407-5.349,5.349-5.349H65.46v13.373
		c0,2.942,2.407,5.349,5.349,5.349h13.373V60.035z"/>
	<path fill="#FFFFFF" d="M84.182,27.94H70.809c-2.941,0-5.349-2.407-5.349-5.349V9.218L84.182,27.94z"/>
	<path fill="#FFFFFF" d="M81.641,67.926L68.135,81.433l-4.013-4.013l13.507-13.506L81.641,67.926z M85.652,71.937L72.146,85.443
		l-4.012-4.011l13.506-13.507L85.652,71.937z"/>
	<path fill="#FFFFFF" d="M30.69,41.313h8.024V33.29H30.69V41.313z M30.69,73.408h8.024v-8.024H30.69V73.408z"/>
	<path fill="#FFFFFF" d="M88.327,63.914c1.604,1.604,1.604,3.743,0,5.35l-2.675,2.673l-4.012-4.011l-4.012-4.012l2.675-2.675
		c1.07-1.07,2.54-1.473,3.878-1.07c0.534,0.133,1.07,0.535,1.472,1.07L88.327,63.914z"/>
	<polygon fill="#FFFFFF" points="72.146,85.443 70.809,86.781 62.784,86.781 62.784,78.757 64.122,77.42 68.135,81.433 	"/>
</g>
<path fill="#E4E5E6" d="M73.809,88.45h-8.024c-0.4,0-0.668-0.269-0.668-0.669v-8.024c0-0.134,0.134-0.4,0.134-0.534l17.519-17.519
	c0.937-0.938,2.007-1.337,3.075-1.337l0,0c1.204,0,2.274,0.534,3.21,1.337l2.675,2.676c1.873,1.87,1.873,4.411,0,6.284
	l-17.52,17.518C74.209,88.315,73.942,88.45,73.809,88.45z"/>
<polygon fill="#F0C419" points="66.454,87.113 73.542,87.113 74.21,86.443 67.122,79.356 66.454,80.025 "/>
<rect x="77.718" y="68.798" transform="matrix(-0.7072 -0.707 0.707 -0.7072 81.4717 189.1102)" fill="#F0C419" width="4.35" height="17.776"/>
<rect x="73.707" y="64.785" transform="matrix(-0.7072 -0.707 0.707 -0.7072 77.4606 179.4237)" fill="#F0C419" width="4.35" height="17.776"/>
<path fill="#F0C419" d="M81.565,64.914l7.087,7.088l2.14-2.14c0.67-0.669,1.07-1.472,1.07-2.141c0-0.803-0.4-1.604-1.07-2.272
	l-2.674-2.676c-1.338-1.338-3.076-1.338-4.413,0L81.565,64.914z"/>
<path fill="#E4E5E6" d="M60.436,88.45h-34.77c-3.342,0-6.018-2.675-6.018-6.018V15.567c0-3.343,2.675-6.018,6.018-6.018H68.46
	c0.133,0,0.4,0.133,0.534,0.133l13.373,13.373c0.268,0.268,0.268,0.669,0,0.937c-0.268,0.267-0.668,0.268-0.936,0L68.192,10.753
	H25.666c-2.54,0-4.68,2.14-4.68,4.68v66.866c0,2.54,2.14,4.68,4.68,4.68h34.77c0.401,0,0.67,0.269,0.67,0.669
	C61.105,88.05,60.837,88.45,60.436,88.45z"/>
<path fill="#0AC6C7" d="M60.436,75.077H49.738c-0.402,0-0.668-0.269-0.668-0.669s0.266-0.668,0.668-0.668h10.698
	c0.401,0,0.67,0.268,0.67,0.668S60.837,75.077,60.436,75.077z"/>
<path fill="#E4E5E6" d="M41.714,75.077H33.69c-0.401,0-0.669-0.269-0.669-0.669v-8.024c0-0.4,0.268-0.668,0.669-0.668h8.024
	c0.401,0,0.669,0.268,0.669,0.668v8.024C42.383,74.809,42.115,75.077,41.714,75.077z"/>
<rect x="34.358" y="67.054" fill="#0AC6C7" width="6.687" height="6.687"/>
<path fill="#0AC6C7" d="M68.46,67.054h-2.676c-0.4,0-0.668-0.269-0.668-0.67c0-0.4,0.268-0.668,0.668-0.668h2.676
	c0.4,0,0.669,0.268,0.669,0.668C69.129,66.785,68.86,67.054,68.46,67.054z"/>
<path fill="#0AC6C7" d="M60.436,67.054H49.738c-0.402,0-0.668-0.269-0.668-0.67c0-0.4,0.266-0.668,0.668-0.668h10.698
	c0.401,0,0.67,0.268,0.67,0.668C61.105,66.785,60.837,67.054,60.436,67.054z"/>
<path fill="#0AC6C7" d="M36.365,59.029c-0.134,0-0.402-0.133-0.535-0.133l-2.675-2.676c-0.268-0.268-0.268-0.668,0-0.937
	c0.268-0.267,0.669-0.267,0.936,0l2.14,2.141l4.948-7.355c0.267-0.268,0.669-0.401,0.936-0.134c0.268,0.269,0.401,0.669,0.134,0.937
	l-5.349,8.024C36.766,58.896,36.631,59.029,36.365,59.029L36.365,59.029z"/>
<path fill="#0AC6C7" d="M73.809,59.029h-8.024c-0.4,0-0.668-0.267-0.668-0.669c0-0.401,0.268-0.669,0.668-0.669h8.024
	c0.4,0,0.669,0.268,0.669,0.669C74.478,58.763,74.209,59.029,73.809,59.029z"/>
<path fill="#0AC6C7" d="M60.436,59.029H49.738c-0.402,0-0.668-0.267-0.668-0.669c0-0.401,0.266-0.669,0.668-0.669h10.698
	c0.401,0,0.67,0.268,0.67,0.669C61.105,58.763,60.837,59.029,60.436,59.029z"/>
<path fill="#E4E5E6" d="M87.182,56.355c-0.401,0-0.668-0.269-0.668-0.669V29.609H73.809c-3.343,0-6.017-2.675-6.017-6.018v-6.687
	c0-0.401,0.267-0.668,0.668-0.668c0.4,0,0.669,0.267,0.669,0.668v6.687c0,2.541,2.139,4.681,4.68,4.681h13.373
	c0.401,0,0.669,0.268,0.669,0.668v26.747C87.851,56.087,87.582,56.355,87.182,56.355z"/>
<path fill="#0AC6C7" d="M71.135,51.006H57.762c-0.402,0-0.669-0.268-0.669-0.668c0-0.402,0.267-0.67,0.669-0.67h13.373
	c0.401,0,0.668,0.268,0.668,0.67C71.803,50.738,71.536,51.006,71.135,51.006z"/>
<path fill="#0AC6C7" d="M52.412,51.006h-2.674c-0.402,0-0.668-0.268-0.668-0.668c0-0.402,0.266-0.67,0.668-0.67h2.674
	c0.402,0,0.669,0.268,0.669,0.67C53.081,50.738,52.814,51.006,52.412,51.006z"/>
<path fill="#0AC6C7" d="M73.809,42.981H63.11c-0.401,0-0.668-0.267-0.668-0.668s0.267-0.669,0.668-0.669h10.698
	c0.4,0,0.669,0.268,0.669,0.669S74.209,42.981,73.809,42.981z"/>
<path fill="#0AC6C7" d="M57.762,42.981h-8.024c-0.402,0-0.668-0.267-0.668-0.668s0.266-0.669,0.668-0.669h8.024
	c0.401,0,0.669,0.268,0.669,0.669S58.163,42.981,57.762,42.981z"/>
<path fill="#E4E5E6" d="M41.714,42.981H33.69c-0.401,0-0.669-0.267-0.669-0.668V34.29c0-0.402,0.268-0.669,0.669-0.669h8.024
	c0.401,0,0.669,0.267,0.669,0.669v8.023C42.383,42.714,42.115,42.981,41.714,42.981z"/>
<rect x="34.358" y="34.958" fill="#0AC6C7" width="6.687" height="6.687"/>
<path fill="#0AC6C7" d="M63.11,34.958H49.738c-0.402,0-0.668-0.267-0.668-0.668c0-0.402,0.266-0.669,0.668-0.669H63.11
	c0.401,0,0.669,0.267,0.669,0.669C63.779,34.69,63.512,34.958,63.11,34.958z"/>
</svg>
