<?xml version="1.0" encoding="utf-8"?>
<!-- Generator: Adobe Illustrator 16.0.0, SVG Export Plug-In . SVG Version: 6.00 Build 0)  -->
<!DOCTYPE svg PUBLIC "-//W3C//DTD SVG 1.1//EN" "http://www.w3.org/Graphics/SVG/1.1/DTD/svg11.dtd">
<svg version="1.1" id="vector" xmlns="http://www.w3.org/2000/svg" xmlns:xlink="http://www.w3.org/1999/xlink" x="0px" y="0px"
	 width="100px" height="100px" viewBox="0 0 100 100" enable-background="new 0 0 100 100" xml:space="preserve">
<path id="path_1_" fill="#CCCCCC" d="M0,50.195c0-13.204,5.251-25.88,14.587-35.217C23.924,5.642,36.601,0.391,49.805,0.391
	s25.881,5.251,35.217,14.587c9.337,9.337,14.588,22.013,14.588,35.217s-5.251,25.881-14.588,35.217
	C75.686,94.749,63.009,100,49.805,100s-25.88-5.251-35.217-14.588C5.251,76.076,0,63.399,0,50.195"/>
<path id="path_1_1_" fill="#FFFFFF" d="M1.141,50.195c0-12.901,5.13-25.288,14.253-34.411C24.517,6.662,36.903,1.531,49.805,1.531
	s25.288,5.13,34.41,14.253c9.123,9.123,14.254,21.509,14.254,34.411s-5.131,25.288-14.254,34.41
	c-9.122,9.123-21.509,14.254-34.41,14.254s-25.288-5.131-34.411-14.254C6.271,75.483,1.141,63.097,1.141,50.195"/>
<path id="path_2" fill="#09C7C7" stroke="#070707" d="M34.268,37.634h33.349v4.722H34.268V37.634z"/>
<path id="path_3" fill="#09C7C7" d="M88.381,24.763v8.231c0.002,0.648-0.143,1.288-0.425,1.872c0,0.004,0,0.008-0.004,0.013
	c-0.521,1.642-2.054,2.833-3.864,2.833H18.473c-0.997,0-1.959-0.367-2.704-1.031c-0.743-0.664-1.217-1.579-1.33-2.569
	c-0.096-0.367-0.146-0.744-0.147-1.122v-8.231c0-2.409,1.949-4.358,4.358-4.358c1.205,0,2.292,0.489,3.081,1.278
	c0.406,0.404,0.727,0.884,0.947,1.412c0.22,0.529,0.332,1.096,0.331,1.668v4.844H79.66v-4.839c0-2.409,1.949-4.358,4.358-4.358
	c1.204,0,2.291,0.489,3.08,1.278c0.405,0.404,0.728,0.884,0.946,1.412c0.219,0.529,0.332,1.096,0.332,1.668H88.381z"/>
<path id="path_4" fill="#070707" d="M84.083,37.958h-65.61c-2.192,0-4.029-1.637-4.276-3.812c-0.098-0.375-0.147-0.761-0.147-1.148
	v-8.236c0-2.539,2.062-4.601,4.601-4.601c1.226,0,2.383,0.481,3.254,1.347c0.429,0.425,0.769,0.932,1,1.489
	c0.232,0.558,0.35,1.156,0.348,1.76v4.605h56.167v-4.601c0-2.539,2.062-4.601,4.601-4.601c1.226,0,2.383,0.481,3.249,1.347
	c0.431,0.425,0.771,0.93,1.003,1.489c0.231,0.558,0.351,1.156,0.349,1.76v8.231c0,0.671-0.147,1.338-0.425,1.928v0.043l-0.03,0.035
	c-0.279,0.861-0.825,1.611-1.56,2.142c-0.732,0.531-1.616,0.815-2.521,0.813V37.958z M18.65,20.647c-2.27,0-4.115,1.846-4.115,4.116
	v8.231c0,0.351,0.047,0.706,0.139,1.061c0.221,1.963,1.854,3.418,3.799,3.418h65.61c0.809,0.002,1.595-0.253,2.246-0.728
	c0.652-0.476,1.136-1.146,1.38-1.915l0.035-0.087c0.26-0.547,0.396-1.145,0.395-1.75v-8.231c0.002-0.541-0.104-1.076-0.313-1.575
	c-0.208-0.499-0.511-0.952-0.896-1.332c-0.382-0.384-0.834-0.689-1.335-0.896c-0.5-0.208-1.035-0.314-1.576-0.313
	c-2.271,0-4.116,1.846-4.116,4.116v5.086H22.77v-5.086c0.001-0.541-0.104-1.076-0.312-1.575c-0.208-0.499-0.512-0.952-0.896-1.332
	c-0.381-0.384-0.835-0.689-1.334-0.896C19.727,20.752,19.191,20.646,18.65,20.647z"/>
<path id="path_5" fill="#DBE4E7" d="M79.136,46.588v31.14c0,2.097-1.78,3.813-3.973,3.813c-1.044,0.004-2.051-0.398-2.807-1.122
	c-0.754-0.715-1.161-1.668-1.161-2.69v-4.714H30.486v4.714c0,1.022-0.412,1.971-1.166,2.69c-0.755,0.724-1.762,1.126-2.807,1.122
	c-2.192,0-3.968-1.712-3.968-3.813v-31.14c0-0.32,0.043-0.654,0.134-0.988c0.212-1.819,1.785-3.163,3.665-3.163h48.993
	c1.88,0,3.452,1.343,3.669,3.163C79.091,45.923,79.134,46.255,79.136,46.588z"/>
<path id="path_6" fill="#070707" d="M75.168,81.783c-1.107,0.006-2.175-0.42-2.977-1.187c-0.797-0.763-1.239-1.781-1.239-2.864
	v-4.471H30.729v4.471c0,1.088-0.438,2.105-1.239,2.864c-0.8,0.767-1.868,1.192-2.976,1.187c-2.322,0-4.211-1.819-4.211-4.055v-31.14
	c0-0.347,0.047-0.697,0.143-1.048c0.216-1.889,1.893-3.34,3.899-3.34h48.993c2.001,0,3.682,1.452,3.907,3.375
	c0.089,0.332,0.135,0.671,0.135,1.014v31.14c0,2.235-1.89,4.055-4.216,4.055H75.168z M30.243,72.772h41.194v4.956
	c0,0.953,0.386,1.846,1.088,2.513c0.708,0.681,1.654,1.061,2.638,1.057c2.058,0,3.73-1.603,3.73-3.569v-31.14
	c0-0.299-0.044-0.611-0.122-0.927c-0.203-1.711-1.681-2.98-3.435-2.98H26.344c-1.759,0-3.232,1.265-3.427,2.946
	c-0.086,0.312-0.131,0.634-0.134,0.958v31.14c0,1.967,1.672,3.57,3.73,3.57c0.982,0.004,1.929-0.373,2.638-1.053
	c0.702-0.667,1.087-1.564,1.087-2.513v-4.956H30.243z"/>
<path id="path_7" fill="#F0C419" d="M66.954,65.759c0-9.094-7.369-16.463-16.463-16.463c-9.093,0-16.462,7.369-16.462,16.463H66.954
	z"/>
<path id="path_8" fill="#070707" d="M67.192,66.001h-33.41v-0.242c0-9.211,7.495-16.705,16.704-16.705
	c9.21,0,16.706,7.494,16.706,16.705V66.001z M34.268,65.516h32.439c-0.13-8.833-7.356-15.977-16.22-15.977
	C41.624,49.539,34.397,56.683,34.268,65.516z"/>
<path id="path_9" fill="#070707" d="M53.554,65.741c-0.027-0.677-0.315-1.318-0.803-1.787c-0.49-0.469-1.142-0.732-1.82-0.732
	c-0.677,0-1.329,0.264-1.817,0.732s-0.777,1.11-0.805,1.787H53.554z"/>
<path id="path_10" fill="#070707" d="M50.955,64.39c0.05,0.071,0.08,0.153,0.087,0.24c0.007,0.086-0.009,0.172-0.046,0.25
	s-0.096,0.146-0.167,0.194c-0.07,0.05-0.153,0.079-0.239,0.086s-0.172-0.008-0.25-0.046c-0.078-0.037-0.146-0.095-0.194-0.166
	l-8.028-11.623c-0.07-0.085-0.109-0.19-0.113-0.301c-0.002-0.109,0.032-0.218,0.097-0.307c0.065-0.088,0.158-0.153,0.264-0.183
	s0.219-0.022,0.321,0.019c0.102,0.042,0.187,0.117,0.241,0.213L50.955,64.39z"/>
</svg>
