<?xml version="1.0" encoding="utf-8"?>
<!-- Generator: Adobe Illustrator 16.0.0, SVG Export Plug-In . SVG Version: 6.00 Build 0)  -->
<!DOCTYPE svg PUBLIC "-//W3C//DTD SVG 1.1//EN" "http://www.w3.org/Graphics/SVG/1.1/DTD/svg11.dtd">
<svg version="1.1" id="vector" xmlns="http://www.w3.org/2000/svg" xmlns:xlink="http://www.w3.org/1999/xlink" x="0px" y="0px"
	 width="100px" height="100px" viewBox="0 0 100 100" enable-background="new 0 0 100 100" xml:space="preserve">
<path id="path_1_" fill="#CCCCCC" d="M0,50.195c0-13.204,5.251-25.88,14.587-35.217C23.924,5.642,36.601,0.391,49.805,0.391
	c13.204,0,25.88,5.251,35.216,14.587c9.338,9.337,14.588,22.013,14.588,35.217s-5.25,25.881-14.588,35.217
	C75.686,94.749,63.009,100,49.805,100c-13.204,0-25.88-5.251-35.217-14.588C5.251,76.076,0,63.398,0,50.195"/>
<path id="path_1_1_" fill="#FFFFFF" d="M1.141,50.195c0-12.901,5.13-25.288,14.253-34.411C24.517,6.662,36.903,1.531,49.805,1.531
	c12.902,0,25.288,5.13,34.41,14.253c9.123,9.123,14.254,21.509,14.254,34.411c0,12.903-5.131,25.288-14.254,34.411
	c-9.122,9.123-21.509,14.254-34.41,14.254c-12.901,0-25.288-5.131-34.411-14.254S1.141,63.098,1.141,50.195"/>
<path fill="#0AC6C7" d="M76.526,83.905H34.822c-1.567,0-2.838-1.27-2.838-2.837V28.298c0-1.567,1.271-2.837,2.838-2.837h41.705
	c1.567,0,2.837,1.27,2.837,2.837v52.771C79.363,82.636,78.094,83.905,76.526,83.905z"/>
<path fill="#0AC6C7" d="M70.853,78.231H29.147c-1.567,0-2.837-1.271-2.837-2.838v-52.77c0-1.567,1.27-2.837,2.837-2.837h41.706
	c1.567,0,2.837,1.271,2.837,2.837v52.77C73.689,76.961,72.42,78.231,70.853,78.231z"/>
<path fill="#FFFFFF" d="M65.17,72.547H23.464c-1.566,0-2.837-1.269-2.837-2.836V16.94c0-1.566,1.271-2.837,2.837-2.837H65.17
	c1.566,0,2.837,1.271,2.837,2.837v52.771C68.007,71.278,66.736,72.547,65.17,72.547z"/>
<rect x="28.571" y="24.601" fill="#F0C419" width="13.618" height="13.619"/>
<path fill="#E4E5E6" d="M65.17,73.967H23.464c-2.347,0-4.255-1.909-4.255-4.256V43.373c0-0.784,0.636-1.418,1.418-1.418
	c0.784,0,1.418,0.635,1.418,1.418v26.338c0,0.782,0.637,1.419,1.418,1.419H65.17c0.781,0,1.42-0.637,1.42-1.419V16.94
	c0-0.782-0.639-1.418-1.42-1.418H23.464c-0.782,0-1.418,0.636-1.418,1.418V31.41c0,0.784-0.635,1.418-1.418,1.418
	c-0.783,0-1.418-0.635-1.418-1.418V16.94c0-2.346,1.909-4.255,4.255-4.255H65.17c2.347,0,4.256,1.909,4.256,4.255v52.771
	C69.426,72.058,67.517,73.967,65.17,73.967z"/>
<path fill="#F0C419" d="M20.627,39.181c-0.374,0-0.739-0.151-1.003-0.416c-0.264-0.266-0.416-0.629-0.416-1.004
	c0-0.372,0.151-0.737,0.416-1.002c0.264-0.264,0.629-0.415,1.003-0.415c0.373,0,0.739,0.15,1.002,0.415
	c0.264,0.265,0.416,0.629,0.416,1.002c0,0.375-0.152,0.74-0.416,1.004S21,39.181,20.627,39.181z"/>
<path fill="#E4E5E6" d="M70.853,79.648H31.984c-0.783,0-1.418-0.634-1.418-1.417c0-0.784,0.635-1.419,1.418-1.419h38.869
	c0.783,0,1.419-0.636,1.419-1.419V19.787c0-0.784,0.636-1.418,1.418-1.418c0.783,0,1.419,0.634,1.419,1.418v55.607
	C75.108,77.741,73.199,79.648,70.853,79.648z"/>
<path fill="#E4E5E6" d="M76.535,85.314H31.993c-0.783,0-1.419-0.636-1.419-1.418c0-0.783,0.636-1.418,1.419-1.418h44.542
	c0.783,0,1.419-0.637,1.419-1.419V25.452c0-0.783,0.636-1.418,1.418-1.418c0.785,0,1.419,0.635,1.419,1.418V81.06
	C80.791,83.405,78.883,85.314,76.535,85.314z"/>
<path fill="#E4E5E6" d="M42.189,39.637H28.571c-0.784,0-1.419-0.635-1.419-1.418V24.601c0-0.784,0.635-1.418,1.419-1.418h13.618
	c0.784,0,1.419,0.634,1.419,1.418v13.619C43.608,39.002,42.973,39.637,42.189,39.637z M29.989,36.8h10.781V26.02H29.989V36.8z"/>
<path fill="#0AC6C7" d="M31.847,53.274L31.847,53.274c-0.376,0-0.737-0.15-1.003-0.415l-2.756-2.758
	c-0.554-0.555-0.554-1.452,0-2.006c0.555-0.554,1.452-0.554,2.006,0l1.753,1.754l3.771-3.771c0.553-0.554,1.452-0.554,2.006,0
	c0.554,0.554,0.554,1.452,0,2.006l-4.774,4.775C32.584,53.124,32.224,53.274,31.847,53.274z"/>
<path fill="#0AC6C7" d="M60.866,50.844H44.317c-0.784,0-1.418-0.635-1.418-1.418c0-0.783,0.635-1.418,1.418-1.418h16.549
	c0.784,0,1.419,0.635,1.419,1.418C62.285,50.209,61.65,50.844,60.866,50.844z"/>
<path fill="#E4E5E6" d="M60.063,26.02h-9.931c-0.783,0-1.418-0.635-1.418-1.419s0.635-1.418,1.418-1.418h9.931
	c0.783,0,1.418,0.634,1.418,1.418S60.847,26.02,60.063,26.02z"/>
<path fill="#E4E5E6" d="M60.063,32.828h-9.931c-0.783,0-1.418-0.635-1.418-1.418c0-0.783,0.635-1.418,1.418-1.418h9.931
	c0.783,0,1.418,0.636,1.418,1.418C61.481,32.193,60.847,32.828,60.063,32.828z"/>
<path fill="#E4E5E6" d="M60.063,39.637h-9.931c-0.783,0-1.418-0.635-1.418-1.418c0-0.784,0.635-1.419,1.418-1.419h9.931
	c0.783,0,1.418,0.635,1.418,1.419C61.481,39.002,60.847,39.637,60.063,39.637z"/>
<path fill="#0AC6C7" d="M31.847,64.106L31.847,64.106c-0.376,0-0.737-0.148-1.003-0.415l-2.756-2.757
	c-0.554-0.554-0.554-1.452,0-2.007c0.555-0.553,1.452-0.554,2.006,0l1.753,1.754l3.771-3.771c0.553-0.554,1.452-0.554,2.006,0
	c0.554,0.554,0.554,1.452,0,2.006l-4.774,4.774C32.584,63.958,32.224,64.106,31.847,64.106z"/>
<path fill="#0AC6C7" d="M60.866,61.626H44.317c-0.784,0-1.418-0.636-1.418-1.42c0-0.782,0.635-1.418,1.418-1.418h16.549
	c0.784,0,1.419,0.636,1.419,1.418C62.285,60.99,61.65,61.626,60.866,61.626z"/>
</svg>
