<?xml version="1.0" encoding="utf-8"?>
<!-- Generator: Adobe Illustrator 16.0.0, SVG Export Plug-In . SVG Version: 6.00 Build 0)  -->
<!DOCTYPE svg PUBLIC "-//W3C//DTD SVG 1.1//EN" "http://www.w3.org/Graphics/SVG/1.1/DTD/svg11.dtd">
<svg version="1.1" id="vector" xmlns="http://www.w3.org/2000/svg" xmlns:xlink="http://www.w3.org/1999/xlink" x="0px" y="0px"
	 width="100px" height="100px" viewBox="0 0 100 100" enable-background="new 0 0 100 100" xml:space="preserve">
<path id="path_1_" fill="#CCCCCC" d="M0,50.195c0-13.204,5.251-25.88,14.587-35.217C23.924,5.642,36.601,0.391,49.805,0.391
	s25.881,5.251,35.217,14.587c9.337,9.337,14.588,22.013,14.588,35.217s-5.251,25.881-14.588,35.217
	C75.686,94.749,63.009,100,49.805,100s-25.88-5.251-35.217-14.588C5.251,76.076,0,63.399,0,50.195"/>
<path id="path_1_1_" fill="#FFFFFF" d="M1.141,50.195c0-12.901,5.13-25.288,14.253-34.411C24.517,6.662,36.903,1.531,49.805,1.531
	s25.288,5.13,34.41,14.253c9.123,9.123,14.254,21.509,14.254,34.411s-5.131,25.288-14.254,34.41
	c-9.122,9.123-21.509,14.254-34.41,14.254s-25.288-5.131-34.411-14.254C6.271,75.483,1.141,63.097,1.141,50.195"/>
<rect x="8.688" y="63.026" fill-rule="evenodd" clip-rule="evenodd" fill="#727270" width="82.698" height="7.428"/>
<path fill-rule="evenodd" clip-rule="evenodd" fill="#67CDFD" d="M26.545,60.986h0.962h0.958h0.837h0.719h54.771
	c0.118-0.957,0.118-1.915,0.118-2.872c0-18.701-13.542-33.921-31.04-35.956c1.202-1.082,1.92-2.519,1.92-4.195
	c0-3.237-2.518-5.876-5.872-5.876c-3.118,0-5.755,2.639-5.755,5.876c0,1.676,0.839,3.113,1.8,4.195
	c-17.378,2.035-30.922,17.254-30.922,35.956c0,0.837,0.121,1.915,0.121,2.872h3.476H26.545z"/>
</svg>
