<?xml version="1.0" encoding="utf-8"?>
<!-- Generator: Adobe Illustrator 16.0.0, SVG Export Plug-In . SVG Version: 6.00 Build 0)  -->
<!DOCTYPE svg PUBLIC "-//W3C//DTD SVG 1.1//EN" "http://www.w3.org/Graphics/SVG/1.1/DTD/svg11.dtd">
<svg version="1.1" id="vector" xmlns="http://www.w3.org/2000/svg" xmlns:xlink="http://www.w3.org/1999/xlink" x="0px" y="0px"
	 width="100px" height="100px" viewBox="0 0 100 100" enable-background="new 0 0 100 100" xml:space="preserve">
<path id="path_1_" fill="#CCCCCC" d="M0,50.195c0-13.204,5.251-25.88,14.587-35.217C23.924,5.642,36.601,0.391,49.805,0.391
	s25.881,5.251,35.217,14.587c9.337,9.337,14.588,22.013,14.588,35.217s-5.251,25.881-14.588,35.217
	C75.686,94.749,63.009,100,49.805,100s-25.88-5.251-35.217-14.588C5.251,76.076,0,63.399,0,50.195"/>
<path id="path_1_1_" fill="#FFFFFF" d="M1.141,50.195c0-12.901,5.13-25.288,14.253-34.411C24.517,6.662,36.903,1.531,49.805,1.531
	s25.288,5.13,34.41,14.253c9.123,9.123,14.254,21.509,14.254,34.411s-5.131,25.288-14.254,34.41
	c-9.122,9.123-21.509,14.254-34.41,14.254s-25.288-5.131-34.411-14.254C6.271,75.483,1.141,63.097,1.141,50.195"/>
<path fill="#0AC6C7" d="M49.434,69.199c0,0-0.263,5.955-8.758,14.013H84.29c0,0,3.248-0.46,3.617-3.613
	c0.007-0.148,0.012-0.298,0.014-0.446c0.031-1.444-0.037-2.902-0.271-4.328c-0.134-0.825-0.322-1.658-0.662-2.425
	c-0.178-0.402-0.453-0.698-0.672-1.073c-0.255-0.443-0.412-0.939-0.716-1.354c-0.347-0.473-0.746-0.904-1.195-1.279
	c-0.989-0.825-2.176-1.143-3.375-1.498c-1.168-0.347-2.332-0.708-3.491-1.086c-2.95-0.962-5.894-2.002-8.71-3.313
	c-1.14-0.531-2.276-1.105-3.312-1.823c-0.662-0.458-1.431-1.028-1.742-1.802l-0.132-5.583c0,0,6.699-5.781,7.685-11.298
	c0,0,5.387,1.183,5.518-6.24c0,0,1.905-6.963-3.481-6.109c0,0,4.73-13.006-9.787-19.706c0,0-12.479-5.321-13.137,0.919
	c0,0-11.364-1.051-12.743,9.853c0,0-0.46,8.014,0,8.802c0,0-5.387-0.065-2.759,7.226c0,0,0.592,5.189,4.729,5.32
	c0,0,0.263,4.007,3.35,4.138c0,0,2.036,1.116,2.956,2.102c0,0,9.656,12.546,9.065,13.4C55.039,61.995,56.243,68.323,49.434,69.199z"
	/>
<path fill="#F0C419" d="M38.384,47.661l-4.642,6.525c0,0-10.159-6.568-16.027,6.655h4.555c0,0,0.875,0.438,0.438,1.313
	l-8.321,11.562c0,0-1.051,1.138-2.189-0.701l-7.99-10.597c0,0-0.531-1.363,0.782-1.801l4.887,0.049c0,0,0.919-9.896,12.13-14.977
	C22.006,45.69,31.465,42.275,38.384,47.661z"/>
<path fill="#F0C419" d="M18.025,76.938l4.642-6.524c0,0,10.159,6.568,16.028-6.657H34.14c0,0-0.875-0.438-0.438-1.313l8.321-11.561
	c0,0,1.051-1.139,2.189,0.7l7.991,10.597c0,0,0.53,1.363-0.783,1.801l-4.886-0.049c0,0-0.92,9.896-12.13,14.977
	C34.403,78.908,24.944,82.324,18.025,76.938z"/>
</svg>
