<?xml version="1.0" encoding="utf-8"?>
<!-- Generator: Adobe Illustrator 16.0.0, SVG Export Plug-In . SVG Version: 6.00 Build 0)  -->
<!DOCTYPE svg PUBLIC "-//W3C//DTD SVG 1.1//EN" "http://www.w3.org/Graphics/SVG/1.1/DTD/svg11.dtd">
<svg version="1.1" id="vector" xmlns="http://www.w3.org/2000/svg" xmlns:xlink="http://www.w3.org/1999/xlink" x="0px" y="0px"
	 width="100px" height="100px" viewBox="0 0 100 100" enable-background="new 0 0 100 100" xml:space="preserve">
<path id="path_1_" fill="#CCCCCC" d="M0,50.195c0-13.204,5.251-25.88,14.587-35.217C23.924,5.642,36.601,0.391,49.805,0.391
	s25.881,5.251,35.217,14.587c9.337,9.337,14.588,22.013,14.588,35.217s-5.251,25.881-14.588,35.217
	C75.686,94.749,63.009,100,49.805,100s-25.88-5.251-35.217-14.588C5.251,76.076,0,63.399,0,50.195"/>
<path id="path_1_1_" fill="#FFFFFF" d="M1.141,50.195c0-12.901,5.13-25.288,14.253-34.411C24.517,6.662,36.903,1.531,49.805,1.531
	s25.288,5.13,34.41,14.253c9.123,9.123,14.254,21.509,14.254,34.411s-5.131,25.288-14.254,34.41
	c-9.122,9.123-21.509,14.254-34.41,14.254s-25.288-5.131-34.411-14.254C6.271,75.483,1.141,63.097,1.141,50.195"/>
<path fill-rule="evenodd" clip-rule="evenodd" fill="#67CDFD" d="M73.458,76.25c-0.969-1.12-2.248-2.24-4.171-2.722
	c0-44.577,10.422-50.671,10.422-50.671h1.282c0,0,0.319,57.242,0.319,59.646c0,0.64,0,2.408,0,4.811
	c10.426-8.978,17.158-22.289,17.158-37.035c0-26.94-21.807-48.743-48.741-48.743c-26.779,0-48.587,21.803-48.587,48.743
	c0,16.677,8.661,31.743,21.808,40.567c0-8.502,0-16.358,0-17.48c1.761-4.809,3.528-13.307,0.801-16.996
	c-4.492-1.442-9.936-7.693-9.936-16.676c0-8.975,4.804-16.997,13.305-17.316l0,0h0.161c8.495,0.319,13.306,8.341,13.306,17.316
	c0,8.983-5.452,15.234-9.942,16.676c-2.725,3.689-0.962,12.188,0.8,16.996c0,1.282,0,12.186,0,22.125
	c5.613,2.087,11.866,3.368,18.285,3.368c0.481,0,0.801,0,1.122,0c0-10.425,0-23.891,0-25.331c0-2.087,5.291-21.169-2.409-29.664
	c-2.403-1.765-3.846-4.65-3.846-7.854c0-0.165,0.161-1.125,0.161-1.125l2.563-20.521h2.085l0.324,24.21l1.602-24.21h2.244
	l1.119,24.21l1.288-24.21h1.922l1.603,24.21l0.639-24.21h2.088l2.725,21.647c0,0,0,0.48,0,0.641
	c-0.321,2.563-1.441,4.974-3.364,6.734l0,0c-7.22,7.534-2.891,27.736-2.891,30.144c0,1.602,0,14.267,0,24.532
	c5.292-0.964,10.104-2.569,14.757-5.295C73.458,87.314,73.458,81.702,73.458,76.25L73.458,76.25z"/>
</svg>
