<?xml version="1.0" encoding="utf-8"?>
<!-- Generator: Adobe Illustrator 16.0.0, SVG Export Plug-In . SVG Version: 6.00 Build 0)  -->
<!DOCTYPE svg PUBLIC "-//W3C//DTD SVG 1.1//EN" "http://www.w3.org/Graphics/SVG/1.1/DTD/svg11.dtd">
<svg version="1.1" id="vector" xmlns="http://www.w3.org/2000/svg" xmlns:xlink="http://www.w3.org/1999/xlink" x="0px" y="0px"
	 width="100px" height="100px" viewBox="0 0 100 100" enable-background="new 0 0 100 100" xml:space="preserve">
<path id="path_1_" fill="#CCCCCC" d="M0,50.195c0-13.204,5.251-25.88,14.587-35.217C23.924,5.642,36.601,0.391,49.805,0.391
	s25.881,5.251,35.217,14.587c9.337,9.337,14.588,22.013,14.588,35.217s-5.251,25.881-14.588,35.217
	C75.686,94.749,63.009,100,49.805,100s-25.88-5.251-35.217-14.588C5.251,76.076,0,63.399,0,50.195"/>
<path id="path_1_1_" fill="#FFFFFF" d="M1.141,50.195c0-12.901,5.13-25.288,14.253-34.411C24.517,6.662,36.903,1.531,49.805,1.531
	s25.288,5.13,34.41,14.253c9.123,9.123,14.254,21.509,14.254,34.411s-5.131,25.288-14.254,34.41
	c-9.122,9.123-21.509,14.254-34.41,14.254s-25.288-5.131-34.411-14.254C6.271,75.483,1.141,63.097,1.141,50.195"/>
<rect x="21.231" y="59.05" fill="#F0C419" width="2.655" height="18.589"/>
<path fill="#0AC6C7" d="M31.119,76.256l14.475,7.142c0.511,0.254,1.11,0.188,1.602-0.1l28.966-16.923
	c0.517-0.299,0.836-0.868,0.836-1.465c0-0.497-0.219-0.975-0.601-1.294c-0.38-0.322-0.88-0.462-1.373-0.374l-24.488,4.257
	l1.074,1.075c0.96,0.96,1.488,2.236,1.488,3.595c0,2.801-2.281,5.083-5.083,5.083c-1.357,0-2.634-0.529-3.594-1.49l-6.868-6.866
	l1.878-1.878l6.867,6.867c0.452,0.452,1.079,0.711,1.717,0.711c1.338,0,2.427-1.089,2.427-2.427c0-0.639-0.259-1.072-0.71-1.523
	L39.27,60.378H26.542v15.934h3.983C30.731,76.312,30.936,76.165,31.119,76.256z"/>
<path fill="#EE8B26" d="M49.45,43.541l-0.748,0.712c-0.514,0.488-1.317,0.488-1.831,0l-0.748-0.712
	c-0.572-0.544-1.322-0.816-2.074-0.816s-1.503,0.272-2.074,0.816c-0.536,0.507-0.829,1.177-0.829,1.886
	c0,0.708,0.294,1.376,0.826,1.883l5.813,5.535l5.813-5.535c0.531-0.507,0.825-1.176,0.825-1.883c0-0.708-0.293-1.379-0.825-1.888
	C52.453,42.453,50.594,42.453,49.45,43.541z"/>
<rect x="71.687" y="19.217" fill="#F0C419" width="2.655" height="18.589"/>
<path fill="#0AC6C7" d="M64.454,20.004l-14.477-7.541c-0.512-0.255-1.11-0.283-1.602,0.002L19.41,29.339
	c-0.515,0.3-0.835,0.846-0.835,1.444c0,0.498,0.22,0.962,0.599,1.281c0.383,0.32,0.877,0.455,1.374,0.368l24.49-4.261l-1.074-1.073
	c-0.961-0.963-1.489-2.239-1.489-3.595c0-2.803,2.281-5.084,5.083-5.084c1.359,0,2.636,0.531,3.596,1.493l6.866,6.867l-1.877,1.884
	l-6.868-6.852c-0.46-0.46-1.069-0.687-1.717-0.687c-1.338,0-2.427,1.14-2.427,2.48c0,0.648,0.252,1.555,0.711,2.015l10.46,10.859
	h12.729V20.544h-3.984C64.842,20.544,64.637,20.097,64.454,20.004z"/>
<path fill="#E4E5E6" d="M74.57,60.622l-26.333,4.579l-7.479-7.285c-0.25-0.248-0.586-0.194-0.938-0.194H26.542
	c0-1.328-0.594-1.328-1.328-1.328h-5.311h-9.294v2.656h7.966v18.589h-7.966v2.655h9.294h5.311c0.734,0,1.328-1.328,1.328-1.328
	h3.669l14.195,6.903c0.614,0.308,1.279,0.364,1.941,0.364c0.756,0,1.51-0.247,2.186-0.642L77.5,68.669
	c1.327-0.773,2.151-2.221,2.151-3.759c0-1.283-0.564-2.499-1.547-3.328C77.126,60.756,75.831,60.403,74.57,60.622z M23.886,77.639
	h-2.655V59.05h2.655V77.639z M76.162,66.353L47.197,83.25c-0.491,0.287-1.09,0.305-1.601,0.051L31.12,76.256
	c-0.185-0.091-0.389,0.056-0.595,0.056h-3.983V60.378H39.27l10.462,10.268c0.451,0.451,0.71,0.98,0.71,1.619
	c0,1.339-1.088,2.38-2.427,2.38c-0.639,0-1.265-0.283-1.717-0.734l-6.867-6.879l-1.878,1.871l6.868,6.864
	c0.96,0.96,2.237,1.487,3.594,1.487c2.802,0,5.083-2.281,5.083-5.084c0-1.357-0.528-2.636-1.489-3.595l-1.075-1.076l24.49-4.259
	c0.492-0.088,0.991,0.05,1.372,0.37c0.383,0.319,0.602,0.79,0.602,1.288C76.997,65.495,76.678,66.053,76.162,66.353z"/>
<path fill="#E4E5E6" d="M84.964,19.217v-2.656h-8.34c-1.136,0-0.577,0-0.954,0h-5.311c-0.735,0-1.328,0-1.328,1.328H65.36
	l-14.196-7.498c-1.316-0.659-2.858-0.808-4.125-0.068L18.072,27.122c-1.328,0.774-2.152,2.161-2.152,3.698
	c0,1.285,0.564,2.469,1.545,3.296c0.791,0.664,1.777,1.006,2.79,1.006c0.25,0,0.498-0.027,0.746-0.07l26.331-4.584l7.48,7.878
	c0.25,0.25,0.587,0.787,0.94,0.787h13.278c0,0,0.593,1.328,1.328,1.328h4.355c0.242,0,0.577,0,0.955,0h9.294v-2.655h-7.967V19.217
	H84.964z M56.303,36.478l-10.46-10.859c-0.459-0.46-0.711-1.269-0.711-1.917c0-1.34,1.088-2.528,2.427-2.528
	c0.648,0,1.257,0.203,1.717,0.663l6.868,6.84l1.877-1.89l-6.866-6.871c-0.959-0.964-2.235-1.496-3.596-1.496
	c-2.802,0-5.083,2.28-5.083,5.083c0,1.355,0.527,2.631,1.489,3.595l1.074,1.073l-24.49,4.261c-0.497,0.087-0.991-0.051-1.374-0.371
	c-0.379-0.323-0.599-0.792-0.599-1.289c0-0.598,0.32-1.156,0.835-1.456l28.965-16.898c0.492-0.286,1.09-0.307,1.602-0.051
	l14.475,7.638c0.185,0.093,0.39,0.541,0.595,0.541h3.984v15.934H56.303z M71.687,19.217h2.655v18.589h-2.655V19.217z"/>
<path fill="#E4E5E6" d="M47.786,41.464c-2.163-1.894-5.543-1.845-7.644,0.154c-1.065,1.015-1.651,2.367-1.651,3.811
	c0,1.442,0.585,2.794,1.651,3.806l6.728,6.406c0.256,0.244,0.587,0.364,0.916,0.364s0.659-0.121,0.915-0.364l6.728-6.406
	c1.066-1.014,1.652-2.364,1.652-3.806c0-1.443-0.586-2.794-1.65-3.809c0-0.001,0-0.001,0-0.001
	C53.328,39.619,49.948,39.572,47.786,41.464z"/>
<path fill="#F0C419" d="M54.913,47.203l-7.127,6.786l-7.126-6.786c-0.651-0.621-1.012-1.441-1.012-2.309
	c0-0.868,0.359-1.69,1.012-2.313c0.702-0.667,1.623-1.001,2.543-1.001c0.921,0,1.842,0.334,2.542,1.001l0.916,0.873
	c0.63,0.598,1.615,0.598,2.246,0l0.917-0.873c1.401-1.333,3.681-1.333,5.086-0.002c0.656,0.624,1.016,1.445,1.016,2.314
	C55.925,45.762,55.564,46.582,54.913,47.203z"/>
<path d="M26.936,43.946l2.606,0.509c0.158-0.81,0.372-1.615,0.636-2.393l-2.516-0.854C27.361,42.1,27.118,43.02,26.936,43.946z"/>
<path d="M26.986,52.389c0.193,0.927,0.45,1.846,0.762,2.726l2.503-0.884c-0.272-0.771-0.497-1.574-0.667-2.387L26.986,52.389z"/>
<path d="M32.377,37.635l-2.202-1.485c-0.528,0.783-1.009,1.606-1.425,2.444l2.378,1.183C31.493,39.043,31.914,38.323,32.377,37.635z
	"/>
<path d="M26.542,48.043c0.001,0.517,0.02,1.028,0.055,1.537l2.648-0.188c-0.031-0.448-0.046-0.902-0.048-1.355
	c0-0.377,0.011-0.751,0.033-1.124l-2.65-0.164C26.555,47.178,26.542,47.607,26.542,48.043z"/>
<path d="M63.194,58.438l2.2,1.488c0.528-0.781,1.01-1.604,1.427-2.445l-2.378-1.184C64.078,57.034,63.658,57.754,63.194,58.438z"/>
<path d="M65.318,41.844c0.275,0.782,0.499,1.584,0.665,2.385l2.602-0.539c-0.191-0.917-0.448-1.834-0.762-2.728L65.318,41.844z"/>
<path d="M65.396,54.014l2.517,0.854c0.301-0.89,0.545-1.81,0.727-2.736l-2.605-0.509C65.873,52.431,65.66,53.235,65.396,54.014z"/>
<path d="M69.031,48.043c0.001-0.521-0.019-1.04-0.057-1.554l-2.647,0.194c0.032,0.446,0.049,0.898,0.048,1.356
	c0,0.376-0.011,0.749-0.033,1.12l2.65,0.163C69.018,48.897,69.031,48.47,69.031,48.043z"/>
</svg>
