<?xml version="1.0" encoding="utf-8"?>
<!-- Generator: Adobe Illustrator 16.0.0, SVG Export Plug-In . SVG Version: 6.00 Build 0)  -->
<!DOCTYPE svg PUBLIC "-//W3C//DTD SVG 1.1//EN" "http://www.w3.org/Graphics/SVG/1.1/DTD/svg11.dtd">
<svg version="1.1" id="vector" xmlns="http://www.w3.org/2000/svg" xmlns:xlink="http://www.w3.org/1999/xlink" x="0px" y="0px"
	 width="100px" height="100px" viewBox="0 0 100 100" enable-background="new 0 0 100 100" xml:space="preserve">
<path id="path_1_" fill="#CCCCCC" d="M0,50.195c0-13.204,5.251-25.88,14.587-35.217C23.924,5.642,36.601,0.391,49.805,0.391
	s25.881,5.251,35.217,14.587c9.337,9.337,14.588,22.013,14.588,35.217s-5.251,25.881-14.588,35.217
	C75.686,94.749,63.009,100,49.805,100s-25.88-5.251-35.217-14.588C5.251,76.076,0,63.399,0,50.195"/>
<path id="path_1_1_" fill="#FFFFFF" d="M1.141,50.195c0-12.901,5.13-25.288,14.253-34.411C24.517,6.662,36.903,1.531,49.805,1.531
	s25.288,5.13,34.41,14.253c9.123,9.123,14.254,21.509,14.254,34.411s-5.131,25.288-14.254,34.41
	c-9.122,9.123-21.509,14.254-34.41,14.254s-25.288-5.131-34.411-14.254C6.271,75.483,1.141,63.097,1.141,50.195"/>
<path id="path" fill="#0AC6C7" d="M65.846,19.275c0,0,4.973,7.061-0.735,15.366c-0.431,5.551-3.293,8.049-3.293,8.049l-1.96-0.216
	l-1,2.016c0,0-1.098,0-1.664,0c-0.197,0-0.333,0-0.333,0v2.016h-1.997c0,0,1.599,5.648-2.996,4.035
	c-4.592-1.613-5.99-6.051-5.99-6.051s-4.591-1.212-2.997,9.077c0.398,2.016,2.795,5.042,5.993,7.062
	c3.195,2.016,7.186,6.855,6.988,11.093c5.393-3.429,5.989-4.036,5.989-4.036s-7.386,2.222-6.987-8.066c-0.799-0.809-1-1.01-1-1.01
	l1.998-2.016c0,0,1.6-1.011,0.999-3.026c0-2.02-0.601-10.289,10.982-12.103c11.58-1.814,12.781,11.496,10.983,15.129
	c-1.799,3.629-5.992,8.066-5.992,8.066s4.794,13.717-6.988,21.18c-0.798,0.81-1.397,4.845,3.995,0
	c5.39-4.84,29.751-27.029,8.985-45.384c-1.198-1.413-6.189-4.438-5.992-12.104c0.201-7.664-0.597-12.907-6.988-17.144
	c-2.996-2.824-5.191-4.237-6.988-6.052c-1.8-1.817-20.169-9.885-36.94,15.129c-3.995,5.649-8.989,27.029-6.992,49.42
	c0,3.026-2.993,8.877-7.986,9.078c0.202,0.402,9.385-1.412,10.983-6.052c0.399-0.204,3.593,16.541,27.956,21.18
	c0.201,0.202-3.996-2.422-5.989-5.044c0,0,12.976,2.622,10.979-9.079c0,0.206,0.201,9.484-8.985,7.063
	c-9.183-2.423-19.167-13.918-15.974-32.272c3.194-18.359,11.982-24.21,11.982-24.21s-15.575,19.973-6.988,33.285
	c0.198,0.202-4.595-14.523,4.991-24.208c9.585-9.68,16.971-9.077,16.971-9.077S62.85,29.362,65.846,19.275z"/>
</svg>
