<?xml version="1.0" encoding="utf-8"?>
<!-- Generator: Adobe Illustrator 16.0.0, SVG Export Plug-In . SVG Version: 6.00 Build 0)  -->
<!DOCTYPE svg PUBLIC "-//W3C//DTD SVG 1.1//EN" "http://www.w3.org/Graphics/SVG/1.1/DTD/svg11.dtd">
<svg version="1.1" id="vector" xmlns="http://www.w3.org/2000/svg" xmlns:xlink="http://www.w3.org/1999/xlink" x="0px" y="0px"
	 width="100px" height="100px" viewBox="0 0 100 100" enable-background="new 0 0 100 100" xml:space="preserve">
<path id="path_1_" fill="#CCCCCC" d="M0,50.195c0-13.204,5.251-25.88,14.587-35.217C23.924,5.642,36.601,0.391,49.805,0.391
	s25.881,5.251,35.217,14.587c9.337,9.337,14.588,22.013,14.588,35.217s-5.251,25.881-14.588,35.217
	C75.686,94.749,63.009,100,49.805,100s-25.88-5.251-35.217-14.588C5.251,76.076,0,63.399,0,50.195"/>
<path id="path_1_1_" fill="#FFFFFF" d="M1.141,50.195c0-12.901,5.13-25.288,14.253-34.411C24.517,6.662,36.903,1.531,49.805,1.531
	s25.288,5.13,34.41,14.253c9.123,9.123,14.254,21.509,14.254,34.411s-5.131,25.288-14.254,34.41
	c-9.122,9.123-21.509,14.254-34.41,14.254s-25.288-5.131-34.411-14.254C6.271,75.483,1.141,63.097,1.141,50.195"/>
<path id="path_3_" fill="#F0C419" d="M53.967,39.487h4.363c0.564,0,1.024,0.46,1.024,1.026v4.363c0,0.566,0.458,1.025,1.024,1.025
	h5.021c0.566,0,1.025-0.459,1.025-1.026v-4.362c0-0.567,0.459-1.026,1.024-1.026h4.364c0.565,0,1.024-0.458,1.024-1.024v-5.021
	c0-0.566-0.459-1.024-1.024-1.024h-4.364c-0.565,0-1.024-0.459-1.024-1.025v-4.363c0-0.566-0.459-1.025-1.025-1.025h-5.021
	c-0.566,0-1.024,0.458-1.024,1.025v4.363c0,0.566-0.46,1.025-1.024,1.025h-4.363c-0.567,0-1.026,0.458-1.026,1.024v5.022
	C52.94,39.029,53.399,39.487,53.967,39.487z"/>
<path id="path_1_3_" fill="#0AC6C7" d="M81.865,20.324c0-4.602-3.743-8.345-8.345-8.345H30.112c-4.601,0-8.345,3.744-8.345,8.345
	V82.69c0,4.602,3.744,8.345,8.345,8.345h30.569c0.51,0,1.021-0.199,1.401-0.58l19.204-19.204c0.352-0.352,0.579-0.856,0.579-1.399
	V20.324L81.865,20.324z M62.662,84.271v-8.057c0-2.417,1.966-4.384,4.383-4.384h8.058C73.781,73.152,63.946,82.988,62.662,84.271z
	 M77.904,67.87H67.045c-4.601,0-8.345,3.743-8.345,8.345v10.858H30.112c-2.417,0-4.382-1.966-4.382-4.383V20.324
	c0-2.417,1.965-4.383,4.382-4.383h43.409c2.417,0,4.383,1.966,4.383,4.383L77.904,67.87L77.904,67.87z"/>
<path id="path_2_1_" fill="#F0C419" d="M70.107,55.865H33.526c-1.094,0-1.981,0.888-1.981,1.979c0,1.096,0.888,1.981,1.981,1.981
	h36.581c1.094,0,1.981-0.886,1.981-1.981C72.089,56.753,71.201,55.865,70.107,55.865z"/>
<path id="path_3" fill="#F0C419" d="M53.666,65.637h-20.14c-1.094,0-1.981,0.888-1.981,1.981s0.888,1.98,1.981,1.98h20.14
	c1.094,0,1.98-0.887,1.98-1.98S54.76,65.637,53.666,65.637z"/>
<path id="path_4" fill="#F0C419" d="M53.666,75.409h-20.14c-1.094,0-1.981,0.887-1.981,1.981c0,1.094,0.888,1.98,1.981,1.98h20.14
	c1.094,0,1.98-0.887,1.98-1.98C55.646,76.296,54.76,75.409,53.666,75.409z"/>
<path id="path_2" fill="#09C7C7" stroke="#000000" stroke-width="0.5" d="M33.858,30.678l10.86,0.072c0,0,1.908,1.101,3.595,3.669
	c0,0,4.216,5.587,2.421,9.17c-1.079,2.159-3.851,6.823-8.73,4.109c-1.047-0.583-1.798-1.761,1.614-4.512l-0.606-0.165
	c0,0-1.595,1.1-5.887,1.1c0,0-0.165,0.962,2.971,2.256c0.569,0.234,1.156,1.156,0.44,2.421c0,0-1.652,2.806-7.154,1.65
	c0,0-6.64-2.385-6.421-6.421c0,0,0-8.143,6.897-13.353V30.678z"/>
<path id="path_3_1_" fill="#DBE4E7" stroke="#070707" stroke-width="0.5" d="M33.6,24.478c-0.003-1.118,0.348-2.208,1.003-3.114
	c0.655-0.905,1.582-1.58,2.644-1.926c1.063-0.346,2.209-0.346,3.271,0c1.063,0.346,1.989,1.021,2.644,1.926
	c0.655,0.906,1.007,1.996,1.003,3.114c0.003,1.118-0.348,2.208-1.003,3.114c-0.655,0.906-1.581,1.581-2.644,1.926
	c-1.063,0.346-2.208,0.346-3.271,0c-1.063-0.345-1.989-1.021-2.644-1.926C33.948,26.686,33.597,25.595,33.6,24.478"/>
<path id="path_4_1_" fill="#DBE4E7" stroke="#070707" stroke-width="0.5" d="M39.471,39.335c-0.002-0.808,0.251-1.595,0.725-2.25
	c0.473-0.653,1.142-1.141,1.91-1.391c0.768-0.25,1.595-0.25,2.363,0c0.768,0.25,1.436,0.737,1.909,1.391
	c0.473,0.654,0.728,1.442,0.725,2.25c0.003,0.808-0.251,1.595-0.725,2.249c-0.473,0.653-1.142,1.141-1.909,1.391
	c-0.768,0.25-1.595,0.25-2.363,0c-0.768-0.25-1.437-0.738-1.91-1.391C39.722,40.931,39.469,40.143,39.471,39.335"/>
<path id="path_5" fill="#DBE4E7" stroke="#070707" stroke-width="0.5" d="M43.231,43.724c-1.679-0.439-2.695,0.013-5.227-3.728
	c0,0-0.66-2.421-2.752-1.926c0,0-1.542,0.549-0.771,2.86c0,0,0.771,1.542,1.046,1.87c0,0-4.127,0.825-4.402,1.707
	c0,0,8.089,4.402,12.766-0.496c0,0-0.441-0.231-0.66-0.289V43.724z"/>
</svg>
