<?xml version="1.0" encoding="utf-8"?>
<!-- Generator: Adobe Illustrator 16.0.0, SVG Export Plug-In . SVG Version: 6.00 Build 0)  -->
<!DOCTYPE svg PUBLIC "-//W3C//DTD SVG 1.1//EN" "http://www.w3.org/Graphics/SVG/1.1/DTD/svg11.dtd">
<svg version="1.1" id="vector" xmlns="http://www.w3.org/2000/svg" xmlns:xlink="http://www.w3.org/1999/xlink" x="0px" y="0px"
	 width="100px" height="100px" viewBox="0 0 100 100" enable-background="new 0 0 100 100" xml:space="preserve">
<path id="path_1_" fill="#CCCCCC" d="M1.141,49.999c0-13.255,5.191-25.981,14.42-35.355C24.791,5.271,37.323,0,50.375,0
	C63.428,0,75.96,5.271,85.188,14.644c9.231,9.374,14.421,22.1,14.421,35.355c0,13.256-5.189,25.982-14.421,35.355
	C75.96,94.729,63.428,100,50.375,100c-13.052,0-25.583-5.271-34.813-14.646C6.332,75.981,1.141,63.255,1.141,49.999"/>
<path id="path_1_1_" fill="#FFFFFF" d="M2.269,49.999c0-12.951,5.071-25.387,14.09-34.545C25.377,6.295,37.621,1.145,50.375,1.145
	c12.755,0,24.999,5.15,34.017,14.309c9.019,9.159,14.09,21.593,14.09,34.545c0,12.954-5.071,25.387-14.09,34.546
	c-9.018,9.159-21.263,14.31-34.017,14.31c-12.753,0-24.998-5.15-34.016-14.31S2.269,62.953,2.269,49.999"/>
<path fill="#F1F4FB" d="M71.244,75.679h-48.01c-1.561,0-2.824-1.269-2.824-2.834V13.297c0-1.565,1.264-2.835,2.824-2.835h48.01
	c1.56,0,2.823,1.27,2.823,2.835v59.547C74.067,74.41,72.804,75.679,71.244,75.679z"/>
<ellipse fill="#0AC6C7" cx="33.118" cy="27.475" rx="4.236" ry="4.253"/>
<ellipse fill="#0AC6C7" cx="33.118" cy="43.071" rx="4.236" ry="4.254"/>
<ellipse fill="#0AC6C7" cx="33.118" cy="58.666" rx="4.236" ry="4.253"/>
<path fill="#F0C419" d="M65.596,47.325H43.002c-0.78,0-1.412-0.635-1.412-1.418c0-0.783,0.631-1.418,1.412-1.418h22.593
	c0.778,0,1.411,0.635,1.411,1.418C67.007,46.689,66.375,47.325,65.596,47.325z"/>
<path fill="#F0C419" d="M59.947,41.653H43.002c-0.78,0-1.412-0.635-1.412-1.417c0-0.783,0.631-1.418,1.412-1.418h16.945
	c0.78,0,1.412,0.635,1.412,1.418C61.359,41.018,60.728,41.653,59.947,41.653z"/>
<path fill="#F0C419" d="M65.596,62.919H43.002c-0.78,0-1.412-0.634-1.412-1.418c0-0.782,0.631-1.417,1.412-1.417h22.593
	c0.778,0,1.411,0.635,1.411,1.417C67.007,62.285,66.375,62.919,65.596,62.919z"/>
<path fill="#F0C419" d="M59.947,57.248H43.002c-0.78,0-1.412-0.634-1.412-1.418c0-0.783,0.631-1.417,1.412-1.417h16.945
	c0.78,0,1.412,0.634,1.412,1.417C61.359,56.614,60.728,57.248,59.947,57.248z"/>
<path fill="#F0C419" d="M65.596,31.729H43.002c-0.78,0-1.412-0.635-1.412-1.418c0-0.782,0.631-1.417,1.412-1.417h22.593
	c0.778,0,1.411,0.635,1.411,1.417C67.007,31.094,66.375,31.729,65.596,31.729z"/>
<path fill="#F0C419" d="M59.947,26.058H43.002c-0.78,0-1.412-0.635-1.412-1.417c0-0.783,0.631-1.418,1.412-1.418h16.945
	c0.78,0,1.412,0.635,1.412,1.418C61.359,25.423,60.728,26.058,59.947,26.058z"/>
<path fill="#E4E5E6" d="M81.381,63.454c-1.9-0.19-3.503,1.298-3.503,3.16v-1.09c0-1.66-1.195-3.174-2.848-3.34
	c-1.9-0.191-3.504,1.297-3.504,3.159v-1.09c0-1.66-1.194-3.174-2.848-3.34c-1.9-0.189-3.503,1.297-3.503,3.159V45.02
	c0-1.862-1.603-3.35-3.503-3.159c-1.652,0.165-2.848,1.679-2.848,3.34v15.696l-3.85,3.851c-1.555,1.554-2.195,3.804-1.691,5.945
	l2.657,11.294c0.945,4.017,4.529,6.855,8.655,6.855h10.741c4.91,0,8.892-3.98,8.892-8.892V66.795
	C84.229,65.133,83.034,63.619,81.381,63.454z"/>
<g>
	<path fill="#9E9E9E" d="M66.445,67.169c0.703,0,1.271-0.568,1.271-1.271v-4.919c-1.446,0.296-2.541,1.56-2.541,3.094v1.825
		C65.176,66.601,65.745,67.169,66.445,67.169z"/>
	<path fill="#9E9E9E" d="M72.797,68.439c0.702,0,1.271-0.569,1.271-1.271v-4.921c-1.446,0.298-2.541,1.562-2.541,3.096v1.825
		C71.526,67.87,72.096,68.439,72.797,68.439z"/>
	<path fill="#9E9E9E" d="M79.148,69.709c0.701,0,1.271-0.568,1.271-1.27v-4.921c-1.446,0.297-2.541,1.562-2.541,3.096v1.824
		C77.878,69.141,78.446,69.709,79.148,69.709z"/>
	<path fill="#9E9E9E" d="M59.111,81.987l-2.945-12.516c-0.325-1.382,0.088-2.833,1.091-3.838l1.567-1.566v3.181
		c0,0.702,0.569,1.271,1.271,1.271c0.702,0,1.271-0.568,1.271-1.271V41.924c-1.488,0.313-2.54,1.723-2.54,3.276v15.697l-3.85,3.851
		c-1.555,1.554-2.195,3.804-1.691,5.945l2.657,11.294c0.945,4.017,4.529,6.855,8.655,6.855h3.17
		C63.64,88.843,60.056,86.004,59.111,81.987z"/>
</g>
</svg>
