<?xml version="1.0" encoding="utf-8"?>
<!-- Generator: Adobe Illustrator 16.0.0, SVG Export Plug-In . SVG Version: 6.00 Build 0)  -->
<!DOCTYPE svg PUBLIC "-//W3C//DTD SVG 1.1//EN" "http://www.w3.org/Graphics/SVG/1.1/DTD/svg11.dtd">
<svg version="1.1" id="vector" xmlns="http://www.w3.org/2000/svg" xmlns:xlink="http://www.w3.org/1999/xlink" x="0px" y="0px"
	 width="100px" height="100px" viewBox="0 0 100 100" enable-background="new 0 0 100 100" xml:space="preserve">
<path id="path_1_" fill="#CCCCCC" d="M0,50.195c0-13.204,5.251-25.88,14.587-35.217C23.924,5.642,36.601,0.391,49.805,0.391
	c13.204,0,25.88,5.251,35.216,14.587c9.338,9.337,14.588,22.013,14.588,35.217s-5.25,25.881-14.588,35.217
	C75.686,94.749,63.009,100,49.805,100c-13.204,0-25.88-5.251-35.217-14.588C5.251,76.076,0,63.398,0,50.195"/>
<path id="path_1_1_" fill="#FFFFFF" d="M1.141,50.195c0-12.901,5.13-25.288,14.253-34.411C24.517,6.662,36.903,1.531,49.805,1.531
	c12.902,0,25.288,5.13,34.41,14.253c9.123,9.123,14.254,21.509,14.254,34.411c0,12.903-5.131,25.288-14.254,34.411
	c-9.122,9.123-21.509,14.254-34.41,14.254c-12.901,0-25.288-5.131-34.411-14.254S1.141,63.098,1.141,50.195"/>
<path fill="#F0C419" d="M79.55,85.235c0,2.77-2.278,5.015-5.087,5.015H25.586c-2.809,0-5.086-2.245-5.086-5.015V15.942
	c0-2.768,2.277-5.012,5.086-5.012h48.877c2.809,0,5.087,2.244,5.087,5.012V85.235z"/>
<path fill="#E4E5E6" d="M77.55,81.866c0,2.542-2.056,4.602-4.59,4.602H28.864c-2.534,0-4.588-2.06-4.588-4.602v-63.58
	c0-2.54,2.054-4.599,4.588-4.599H72.96c2.534,0,4.59,2.059,4.59,4.599V81.866z"/>
<text transform="matrix(1 0 0 1 31 36.625)" fill="#0AC6C7" font-family="'MyriadPro-Bold'" font-size="14">Q</text>
<text transform="matrix(1 0 0 1 32 55.625)" fill="#0AC6C7" font-family="'MyriadPro-Bold'" font-size="14">A</text>
<path fill="none" stroke="#0AC6C7" stroke-width="2" stroke-miterlimit="10" d="M86.998,44.625
	c-1.043,0.671-2.007,1.671-2.876,2.637c-1.88,2.088-3.998,4-5.989,5.98c-3.961,3.943-7.922,7.887-11.884,11.827
	c-1.198,1.192-2.396,2.385-3.594,3.577c-1.143,1.137-3.012,2.14-3.67,3.666c-0.784,1.819-1.21,3.855-1.86,5.732
	c-0.358,1.031-0.988,3.224,0.819,3.136c1.123-0.054,2.38-0.741,3.407-1.162c1.134-0.465,2.251-0.973,3.343-1.531
	c4.037-2.063,6.417-5.512,9.492-8.692c4.194-4.336,8.39-8.671,12.586-13.005c2.63-2.72,9.817-7.135,5.783-11.363
	C90.543,43.32,88.669,43.55,86.998,44.625z"/>
<rect x="58.906" y="73.58" transform="matrix(0.6476 0.7619 -0.7619 0.6476 78.8129 -21.8715)" fill="#0AC6C7" width="8.296" height="1.396"/>
<rect x="82.234" y="50.327" transform="matrix(0.6478 0.7618 -0.7618 0.6478 69.2991 -47.8361)" fill="#0AC6C7" width="8.296" height="1.396"/>
<path fill="#0AC6C7" d="M69.5,30.5c0,0.552-0.447,1-1,1H45.667c-0.552,0-1-0.448-1-1l0,0c0-0.552,0.448-1,1-1H68.5
	C69.053,29.5,69.5,29.948,69.5,30.5L69.5,30.5z"/>
<path fill="#0AC6C7" d="M70,49.59c0,0.552-0.447,1-1,1H46.167c-0.552,0-1-0.447-1-1l0,0c0-0.552,0.448-1,1-1H69
	C69.553,48.59,70,49.038,70,49.59L70,49.59z"/>
<path fill="#0AC6C7" d="M70,54.639c0,0.552-0.447,0.999-1,0.999H46.167c-0.552,0-1-0.447-1-0.999l0,0c0-0.553,0.448-1,1-1H69
	C69.553,53.639,70,54.086,70,54.639L70,54.639z"/>
<path fill="#0AC6C7" d="M65.987,59.139c0,0.552-0.604,0.999-1.349,0.999H33.848c-0.745,0-1.349-0.447-1.349-0.999l0,0
	c0-0.553,0.604-1,1.349-1h30.791C65.384,58.139,65.987,58.586,65.987,59.139L65.987,59.139z"/>
<path fill="#0AC6C7" d="M65.987,64.222c0,0.552-0.604,0.999-1.349,0.999H33.848c-0.745,0-1.349-0.447-1.349-0.999l0,0
	c0-0.553,0.604-1,1.349-1h30.791C65.384,63.222,65.987,63.669,65.987,64.222L65.987,64.222z"/>
<path fill="#0AC6C7" d="M62.655,68.555c0,0.552-0.553,0.999-1.235,0.999H33.234c-0.682,0-1.234-0.447-1.234-0.999l0,0
	c0-0.553,0.553-1,1.234-1H61.42C62.103,67.555,62.655,68.002,62.655,68.555L62.655,68.555z"/>
<path fill="#0AC6C7" d="M60.833,34.792c0,0.575-0.291,1.042-0.65,1.042H45.318c-0.36,0-0.651-0.466-0.651-1.042l0,0
	c0-0.576,0.292-1.042,0.651-1.042h14.865C60.542,33.75,60.833,34.216,60.833,34.792L60.833,34.792z"/>
</svg>
