<?xml version="1.0" encoding="utf-8"?>
<!-- Generator: Adobe Illustrator 16.0.0, SVG Export Plug-In . SVG Version: 6.00 Build 0)  -->
<!DOCTYPE svg PUBLIC "-//W3C//DTD SVG 1.1//EN" "http://www.w3.org/Graphics/SVG/1.1/DTD/svg11.dtd">
<svg version="1.1" id="vector" xmlns="http://www.w3.org/2000/svg" xmlns:xlink="http://www.w3.org/1999/xlink" x="0px" y="0px"
	 width="100px" height="100px" viewBox="0 0 100 100" enable-background="new 0 0 100 100" xml:space="preserve">
<path id="path_1_" fill="#CCCCCC" d="M0,50.195c0-13.204,5.251-25.88,14.587-35.217C23.924,5.642,36.601,0.391,49.805,0.391
	s25.881,5.251,35.217,14.587c9.337,9.337,14.588,22.013,14.588,35.217s-5.251,25.881-14.588,35.217
	C75.686,94.749,63.009,100,49.805,100s-25.88-5.251-35.217-14.588C5.251,76.076,0,63.399,0,50.195"/>
<path id="path_1_1_" fill="#FFFFFF" d="M1.141,50.195c0-12.901,5.13-25.288,14.253-34.411C24.517,6.662,36.903,1.531,49.805,1.531
	s25.288,5.13,34.41,14.253c9.123,9.123,14.254,21.509,14.254,34.411s-5.131,25.288-14.254,34.41
	c-9.122,9.123-21.509,14.254-34.41,14.254s-25.288-5.131-34.411-14.254C6.271,75.483,1.141,63.097,1.141,50.195"/>
<path id="path_2_" fill="#0AC6C7" d="M75.01,67.405c2.78-1.918,1.398-9.827,0.967-11.951c-0.449-1.9-0.967-3.8-1.468-5.7
	c-0.64-2.4-1.261-4.818-1.935-7.218c-1.503-5.388-5.803-8.946-11.381-9.447c-0.69-0.069-1.382-0.069-2.055-0.069
	c-7.53,0-15.06-0.018-22.589,0c-4.11,0-7.046,1.986-9.153,5.406c-1.037,1.692-1.555,3.558-2.021,5.457
	c-1.33,5.267-2.66,10.534-3.73,15.871c-0.276,1.382-0.535,2.764-0.104,4.18c0.483,1.605,1.468,2.832,2.694,3.902
	c1.364,1.192,2.918,2.107,4.508,2.953c0.966,0.519,1.951,1.02,2.884,1.59c0.949,0.568,1.588,1.364,1.571,2.538
	c0,0.397-0.104,0.776-0.276,1.14c-1.157,2.297-2.021,4.715-3.022,7.081c-0.593,1.401-1.175,2.806-1.753,4.214
	c-0.235,0.574-1.014,2.063-0.464,2.615c0.502,0.505,2.226,0.183,2.864,0.183c4.928,0,9.856,0,14.784,0c5.762,0,11.524,0,17.286,0
	c2.156,0,4.313,0,6.469,0c0.836,0,2.76,0.28,3.122-0.673c0.253-0.665-0.799-2.263-1.039-2.916c-0.417-1.134-0.799-2.279-1.186-3.423
	c-0.934-2.764-1.813-5.544-2.729-8.308c-0.018-0.052-0.122-0.396-0.14-0.449c-1.122-4.144,5.406-5.301,7.894-7.012V67.405z
	 M61.677,63.899c-2.072,1.795-4.576,2.642-7.185,3.246c-2.417,0.553-4.87,0.69-7.305,0.034c-2.142-0.57-3.92-1.709-5.302-3.454
	c-0.259-0.327-0.483-0.414-0.898-0.311c-0.243,0.069-0.492,0.121-0.743,0.155c-0.687,0.185-1.395,0.278-2.107,0.277
	c-4.42,0-8.013-3.594-8.013-8.014c0-4.421,3.593-8.014,8.013-8.014c4.231,0,7.703,3.299,7.979,7.46
	c0.76-0.482,1.52-0.897,2.349-1.139c2.176-0.622,4.283-0.329,6.373,0.345c1.244,0.397,2.435,0.897,3.558,1.554
	c2.919,1.659,6.079,2.746,9.291,3.697c0.121,0.034,0.26,0.052,0.381,0.155c-1.728,0.656-3.195,1.743-4.698,2.763
	c-0.57,0.38-1.157,0.76-1.675,1.208L61.677,63.899z"/>
<path id="path_1_2_" fill="#0AC6C7" d="M36.826,17.409c0-3.595,1.429-7.045,3.971-9.586c2.541-2.542,5.992-3.971,9.586-3.971
	s7.045,1.429,9.586,3.971s3.971,5.992,3.971,9.586c0,3.594-1.43,7.045-3.971,9.586c-2.541,2.542-5.992,3.971-9.586,3.971
	s-7.045-1.429-9.586-3.971C38.254,24.454,36.826,21.002,36.826,17.409"/>
</svg>
