<?xml version="1.0" encoding="utf-8"?>
<!-- Generator: Adobe Illustrator 16.0.0, SVG Export Plug-In . SVG Version: 6.00 Build 0)  -->
<!DOCTYPE svg PUBLIC "-//W3C//DTD SVG 1.1//EN" "http://www.w3.org/Graphics/SVG/1.1/DTD/svg11.dtd">
<svg version="1.1" id="vector" xmlns="http://www.w3.org/2000/svg" xmlns:xlink="http://www.w3.org/1999/xlink" x="0px" y="0px"
	 width="100px" height="100px" viewBox="0 0 100 100" enable-background="new 0 0 100 100" xml:space="preserve">
<path id="path_1_" fill="#CCCCCC" d="M0,50.195c0-13.204,5.251-25.88,14.587-35.217C23.924,5.642,36.601,0.391,49.805,0.391
	s25.881,5.251,35.217,14.587c9.337,9.337,14.588,22.013,14.588,35.217s-5.251,25.881-14.588,35.217
	C75.686,94.749,63.009,100,49.805,100s-25.88-5.251-35.217-14.588C5.251,76.076,0,63.399,0,50.195"/>
<path id="path_1_1_" fill="#FFFFFF" d="M1.141,50.195c0-12.901,5.13-25.288,14.253-34.411C24.517,6.662,36.903,1.531,49.805,1.531
	s25.288,5.13,34.41,14.253c9.123,9.123,14.254,21.509,14.254,34.411s-5.131,25.288-14.254,34.41
	c-9.122,9.123-21.509,14.254-34.41,14.254s-25.288-5.131-34.411-14.254C6.271,75.483,1.141,63.097,1.141,50.195"/>
<path id="path" fill="#E4E5E6" d="M60.798,62.092V13.714c0-6.394-5.183-11.577-11.576-11.577c-6.393,0-11.576,5.183-11.576,11.577
	v48.377c-4.957,3.571-8.209,9.357-8.269,15.918c-0.093,10.581,8.5,19.609,19.075,20.01c11.312,0.428,20.616-8.615,20.616-19.831
	C69.067,71.554,65.8,65.695,60.798,62.092"/>
<path id="path_1" fill="#0AC6C7" d="M48.702,91.409c-6.951-0.263-12.772-6.374-12.709-13.339c0.038-4.244,2.051-8.111,5.519-10.61
	l2.749-1.982V55.06c0-2.737,2.226-4.961,4.961-4.961c2.737,0,4.962,2.224,4.962,4.961v10.418l2.75,1.982
	c3.454,2.488,5.519,6.501,5.519,10.729c0,3.534-1.376,6.856-3.873,9.355c-2.499,2.499-5.821,3.874-9.355,3.874
	C49.221,91.419,48.875,91.417,48.702,91.409"/>
<path id="path_2" fill="#F0C419" d="M83.771,68.236c0-3.818,3.092-6.909,6.91-6.909c-3.819,0-6.91-3.091-6.91-6.91
	c0,3.819-3.09,6.91-6.91,6.91C80.682,61.326,83.771,64.418,83.771,68.236"/>
<path id="path_3" fill="#F0C419" d="M69.953,19.843c-0.955,0-1.729-0.772-1.729-1.728v-6.91c0-0.955,0.773-1.728,1.729-1.728
	s1.728,0.772,1.728,1.728v6.91C71.681,19.07,70.908,19.843,69.953,19.843"/>
<path id="path_4" fill="#F0C419" d="M73.408,16.388h-6.91c-0.955,0-1.728-0.772-1.728-1.728s0.772-1.728,1.728-1.728h6.91
	c0.955,0,1.727,0.772,1.727,1.728S74.363,16.388,73.408,16.388"/>
<path id="path_5" fill="#F0C419" d="M23.308,22.458l-5.182-5.183l5.182-5.183l5.183,5.183L23.308,22.458z"/>
<path id="path_6" fill="#F0C419" d="M12.944,63.918c0,0.954-0.774,1.729-1.728,1.729s-1.728-0.774-1.728-1.729
	c0-0.953,0.774-1.728,1.728-1.728S12.944,62.965,12.944,63.918"/>
<path id="path_7" fill="#0AC6C7" d="M49.222,18.676c0.915,0,1.653-0.74,1.653-1.654c0-0.915-0.739-1.654-1.653-1.654H37.646v3.308
	H49.222L49.222,18.676z"/>
<path id="path_8" fill="#0AC6C7" d="M44.261,25.291c0.914,0,1.654-0.74,1.654-1.654s-0.74-1.654-1.654-1.654h-6.615v3.308
	L44.261,25.291L44.261,25.291z"/>
<path id="path_9" fill="#0AC6C7" d="M49.222,31.906c0.915,0,1.653-0.739,1.653-1.654c0-0.915-0.739-1.654-1.653-1.654H37.646v3.308
	H49.222L49.222,31.906z"/>
<path id="path_10" fill="#0AC6C7" d="M44.261,38.521c0.914,0,1.654-0.739,1.654-1.654c0-0.915-0.74-1.654-1.654-1.654h-6.615v3.308
	H44.261L44.261,38.521z"/>
<path id="path_11" fill="#0AC6C7" d="M49.222,45.136c0.915,0,1.653-0.74,1.653-1.654c0-0.915-0.739-1.654-1.653-1.654H37.646v3.307
	L49.222,45.136L49.222,45.136z"/>
</svg>
